<svg width="16" height="16" viewBox="0 0 16 16" fill="none" xmlns="http://www.w3.org/2000/svg">
<path d="M6.04014 7.34961C5.89383 7.34961 5.75353 7.40772 5.65009 7.51117C5.54664 7.61462 5.48853 7.75492 5.48853 7.90123V13.9995C5.48853 14.1966 5.59368 14.3786 5.76436 14.4772C5.93498 14.5758 6.14529 14.5758 6.31592 14.4772C6.4866 14.3786 6.59176 14.1966 6.59176 13.9995V7.90123C6.59176 7.75492 6.53365 7.61461 6.4302 7.51117C6.32675 7.40772 6.18645 7.34961 6.04014 7.34961Z" fill="#494950"/>
<path d="M9.53623 4.29883C9.38993 4.29883 9.24962 4.35694 9.14618 4.46039C9.04273 4.56383 8.98462 4.70414 8.98462 4.85038V13.9978C8.98462 14.1949 9.08977 14.3769 9.26046 14.4755C9.43108 14.574 9.64138 14.574 9.81201 14.4755C9.98269 14.3769 10.0879 14.1949 10.0879 13.9978V4.85038C10.0879 4.70414 10.0297 4.56383 9.92629 4.46039C9.82285 4.35694 9.68254 4.29883 9.53623 4.29883Z" fill="#494950"/>
<path d="M2.5426 10.3966C2.39788 10.3989 2.25988 10.4581 2.15838 10.5613C2.05688 10.6644 2 10.8034 2 10.9482V13.9973C2 14.1944 2.10515 14.3765 2.27584 14.475C2.44646 14.5736 2.65676 14.5736 2.82739 14.475C2.99807 14.3765 3.10323 14.1944 3.10323 13.9973V10.9482C3.10323 10.8003 3.04389 10.6586 2.93849 10.5549C2.83305 10.4512 2.69045 10.3941 2.5426 10.3966Z" fill="#494950"/>
<path d="M13.0318 1.25C12.8855 1.25 12.7452 1.30811 12.6418 1.41156C12.5383 1.51501 12.4802 1.65531 12.4802 1.80162V13.9981C12.4802 14.1952 12.5854 14.3773 12.756 14.4758C12.9267 14.5744 13.1369 14.5744 13.3076 14.4758C13.4783 14.3773 13.5834 14.1952 13.5834 13.9981V1.80162C13.5834 1.65531 13.5253 1.515 13.4218 1.41156C13.3184 1.30811 13.1781 1.25 13.0318 1.25Z" fill="#494950"/>
</svg>
