<svg width="17" height="16" viewBox="0 0 17 16" fill="none" xmlns="http://www.w3.org/2000/svg">
<g clip-path="url(#clip0_310_1006)">
<path d="M4.41662 13.1175C5.24956 13.115 6.05334 12.8106 6.67909 12.2609C7.30484 11.7111 7.71015 10.9532 7.81995 10.1275H8.55662L10.7433 5.78086L11.25 6.75419C10.5323 7.21513 10.0167 7.93154 9.80741 8.75836C9.59813 9.58518 9.71085 10.4606 10.1228 11.2075C10.5347 11.9543 11.215 12.5167 12.0259 12.7808C12.8369 13.045 13.7179 12.9911 14.4907 12.63C15.2634 12.269 15.87 11.6278 16.1878 10.8364C16.5056 10.0449 16.5107 9.16221 16.2022 8.36707C15.8937 7.57193 15.2945 6.92374 14.5261 6.55373C13.7576 6.18372 12.8773 6.11955 12.0633 6.37419L10.71 3.78086H12.0833C12.1415 3.78138 12.1971 3.80473 12.2383 3.84587C12.2794 3.88702 12.3028 3.94267 12.3033 4.00086V4.38086H13.1966V4.00086C13.1971 3.85419 13.1688 3.70886 13.1131 3.57317C13.0574 3.43748 12.9755 3.3141 12.8721 3.21008C12.7687 3.10606 12.6458 3.02345 12.5105 2.96696C12.3751 2.91047 12.23 2.88121 12.0833 2.88086H9.22329L10.27 4.88753H6.44462L5.85662 3.78086H6.82329L6.34329 2.88086H3.52995L4.00995 3.78086H4.83729L5.67729 5.36086V5.36753L5.17062 6.30753C4.92356 6.25006 4.67093 6.21987 4.41729 6.21753C3.96422 6.21753 3.5156 6.30676 3.09703 6.48014C2.67845 6.65352 2.29813 6.90765 1.97777 7.22801C1.6574 7.54837 1.40328 7.9287 1.2299 8.34727C1.05652 8.76584 0.967285 9.21447 0.967285 9.66753C0.967285 10.1206 1.05652 10.5692 1.2299 10.9878C1.40328 11.4064 1.6574 11.7867 1.97777 12.107C2.29813 12.4274 2.67845 12.6815 3.09703 12.8549C3.5156 13.0283 3.96356 13.1175 4.41662 13.1175ZM12.9433 9.98753H13.9566L12.49 7.18753C12.684 7.13886 12.8833 7.11419 13.0833 7.11419C13.5883 7.11419 14.0819 7.26394 14.5018 7.54451C14.9217 7.82507 15.249 8.22385 15.4423 8.69041C15.6355 9.15697 15.6861 9.67036 15.5876 10.1657C15.489 10.661 15.2459 11.1159 14.8888 11.473C14.5317 11.8301 14.0767 12.0733 13.5814 12.1718C13.0861 12.2703 12.5727 12.2198 12.1062 12.0265C11.6396 11.8332 11.2408 11.506 10.9603 11.0861C10.6797 10.6662 10.53 10.1725 10.53 9.66753C10.5319 9.24765 10.6361 8.83458 10.8336 8.46403C11.0311 8.09348 11.3158 7.77662 11.6633 7.54086L12.9433 9.98753ZM9.72995 5.78086L8.36595 8.50219L6.91928 5.78086H9.72995ZM6.18329 6.31419L7.73195 9.22819H4.61662L6.18329 6.31419ZM4.41662 7.11753C4.51729 7.12086 4.61795 7.13019 4.71729 7.14486L3.66395 9.10753L4.19062 10.1275H6.92395C6.83617 10.6036 6.61456 11.0449 6.28506 11.3996C5.95557 11.7543 5.53184 12.0079 5.06348 12.1305C4.59512 12.2531 4.10152 12.2397 3.64048 12.0919C3.17944 11.9442 2.77004 11.6681 2.46023 11.2961C2.15041 10.924 1.95299 10.4714 1.8911 9.99128C1.8292 9.51111 1.90538 9.02325 2.11073 8.58481C2.31608 8.14637 2.64208 7.77551 3.05058 7.51565C3.45907 7.2558 3.93248 7.1177 4.41662 7.11753Z" fill="#494950"/>
</g>
<defs>
<clipPath id="clip0_310_1006">
<rect width="16" height="16" fill="white" transform="translate(0.75)"/>
</clipPath>
</defs>
</svg>
