<svg width="20" height="20" viewBox="0 0 20 20" fill="none" xmlns="http://www.w3.org/2000/svg">
<path d="M18.4299 16.4169L15.5624 10.9502V5.85602C15.5372 4.39786 14.9402 3.00797 13.9001 1.98571C12.86 0.963447 11.46 0.390625 10.0016 0.390625C8.54324 0.390625 7.14322 0.963447 6.10311 1.98571C5.063 3.00797 4.46602 4.39786 4.44078 5.85602V10.9519L1.56995 16.4169H6.33328C6.42242 17.3288 6.84775 18.1749 7.52645 18.7905C8.20515 19.4061 9.08865 19.7471 10.0049 19.7471C10.9212 19.7471 11.8047 19.4061 12.4834 18.7905C13.1621 18.1749 13.5875 17.3288 13.6766 16.4169H18.4299ZM5.56245 11.2285V5.85602C5.56245 4.67868 6.03014 3.54956 6.86265 2.71705C7.69515 1.88455 8.82427 1.41685 10.0016 1.41685C11.179 1.41685 12.3081 1.88455 13.1406 2.71705C13.9731 3.54956 14.4408 4.67868 14.4408 5.85602V11.2285L16.5699 15.2944H3.42995L5.56245 11.2285ZM10.0058 18.6277C9.3867 18.6256 8.78896 18.4012 8.3214 17.9954C7.85384 17.5897 7.54754 17.0295 7.45828 16.4169H12.5524C12.4632 17.0293 12.157 17.5894 11.6896 17.9952C11.2222 18.4009 10.6247 18.6254 10.0058 18.6277Z" fill="#6D6D78"/>
</svg>
