<svg width="20" height="20" viewBox="0 0 20 20" fill="none" xmlns="http://www.w3.org/2000/svg">
<path d="M18.4298 16.4169L15.5623 10.9502V5.85602C15.5371 4.39786 14.9401 3.00797 13.9 1.98571C12.8599 0.963447 11.4599 0.390625 10.0015 0.390625C8.54312 0.390625 7.1431 0.963447 6.10299 1.98571C5.06287 3.00797 4.4659 4.39786 4.44066 5.85602V10.9519L1.56982 16.4169H6.33316C6.4223 17.3288 6.84763 18.1749 7.52633 18.7905C8.20503 19.4061 9.08853 19.7471 10.0048 19.7471C10.9211 19.7471 11.8046 19.4061 12.4833 18.7905C13.162 18.1749 13.5873 17.3288 13.6765 16.4169H18.4298ZM5.56232 11.2285V5.85602C5.56232 4.67868 6.03002 3.54956 6.86253 2.71705C7.69503 1.88455 8.82415 1.41685 10.0015 1.41685C11.1788 1.41685 12.308 1.88455 13.1405 2.71705C13.973 3.54956 14.4407 4.67868 14.4407 5.85602V11.2285L16.5698 15.2944H3.42982L5.56232 11.2285ZM10.0057 18.6277C9.38658 18.6256 8.78884 18.4012 8.32128 17.9954C7.85372 17.5897 7.54742 17.0295 7.45816 16.4169H12.5523C12.4631 17.0293 12.1569 17.5894 11.6895 17.9952C11.2221 18.4009 10.6246 18.6254 10.0057 18.6277Z" fill="#6D6D78"/>
</svg>
