<svg width="17" height="16" viewBox="0 0 17 16" fill="none" xmlns="http://www.w3.org/2000/svg">
<path d="M6.54014 7.34961C6.39383 7.34961 6.25353 7.40772 6.15009 7.51117C6.04664 7.61462 5.98853 7.75492 5.98853 7.90123V13.9995C5.98853 14.1966 6.09368 14.3786 6.26436 14.4772C6.43498 14.5758 6.64529 14.5758 6.81592 14.4772C6.9866 14.3786 7.09176 14.1966 7.09176 13.9995V7.90123C7.09176 7.75492 7.03365 7.61461 6.9302 7.51117C6.82675 7.40772 6.68645 7.34961 6.54014 7.34961Z" fill="#494950"/>
<path d="M10.0361 4.29883C9.88981 4.29883 9.7495 4.35694 9.64606 4.46039C9.54261 4.56383 9.4845 4.70414 9.4845 4.85038V13.9978C9.4845 14.1949 9.58965 14.3769 9.76033 14.4755C9.93095 14.574 10.1413 14.574 10.3119 14.4755C10.4826 14.3769 10.5877 14.1949 10.5877 13.9978V4.85038C10.5877 4.70414 10.5296 4.56383 10.4262 4.46039C10.3227 4.35694 10.1824 4.29883 10.0361 4.29883Z" fill="#494950"/>
<path d="M3.0426 10.3966C2.89788 10.3989 2.75988 10.4581 2.65838 10.5613C2.55688 10.6644 2.5 10.8034 2.5 10.9482V13.9973C2.5 14.1944 2.60515 14.3765 2.77584 14.475C2.94646 14.5736 3.15676 14.5736 3.32739 14.475C3.49807 14.3765 3.60323 14.1944 3.60323 13.9973V10.9482C3.60323 10.8003 3.54389 10.6586 3.43849 10.5549C3.33305 10.4512 3.19045 10.3941 3.0426 10.3966Z" fill="#494950"/>
<path d="M13.5317 1.25C13.3854 1.25 13.2451 1.30811 13.1417 1.41156C13.0382 1.51501 12.9801 1.65531 12.9801 1.80162V13.9981C12.9801 14.1952 13.0853 14.3773 13.2559 14.4758C13.4266 14.5744 13.6368 14.5744 13.8075 14.4758C13.9782 14.3773 14.0833 14.1952 14.0833 13.9981V1.80162C14.0833 1.65531 14.0252 1.515 13.9217 1.41156C13.8183 1.30811 13.678 1.25 13.5317 1.25Z" fill="#494950"/>
</svg>
