<svg width="17" height="16" viewBox="0 0 17 16" fill="none" xmlns="http://www.w3.org/2000/svg">
<path d="M6.5399 7.34961C6.39359 7.34961 6.25328 7.40772 6.14984 7.51117C6.0464 7.61462 5.98828 7.75492 5.98828 7.90123V13.9995C5.98828 14.1966 6.09343 14.3786 6.26412 14.4772C6.43474 14.5758 6.64504 14.5758 6.81568 14.4772C6.98635 14.3786 7.09151 14.1966 7.09151 13.9995V7.90123C7.09151 7.75492 7.0334 7.61461 6.92995 7.51117C6.82651 7.40772 6.6862 7.34961 6.5399 7.34961Z" fill="#494950"/>
<path d="M10.036 4.29883C9.88968 4.29883 9.74938 4.35694 9.64593 4.46039C9.54249 4.56383 9.48438 4.70414 9.48438 4.85038V13.9978C9.48438 14.1949 9.58953 14.3769 9.76021 14.4755C9.93083 14.574 10.1411 14.574 10.3118 14.4755C10.4824 14.3769 10.5876 14.1949 10.5876 13.9978V4.85038C10.5876 4.70414 10.5295 4.56383 10.426 4.46039C10.3226 4.35694 10.1823 4.29883 10.036 4.29883Z" fill="#494950"/>
<path d="M3.0426 10.3966C2.89788 10.3989 2.75988 10.4581 2.65838 10.5613C2.55688 10.6644 2.5 10.8034 2.5 10.9482V13.9973C2.5 14.1944 2.60515 14.3765 2.77584 14.475C2.94646 14.5736 3.15676 14.5736 3.32739 14.475C3.49807 14.3765 3.60323 14.1944 3.60323 13.9973V10.9482C3.60323 10.8003 3.54389 10.6586 3.43849 10.5549C3.33305 10.4512 3.19045 10.3941 3.0426 10.3966Z" fill="#494950"/>
<path d="M13.5316 1.25C13.3853 1.25 13.245 1.30811 13.1415 1.41156C13.0381 1.51501 12.98 1.65531 12.98 1.80162V13.9981C12.98 14.1952 13.0851 14.3773 13.2558 14.4758C13.4264 14.5744 13.6367 14.5744 13.8074 14.4758C13.9781 14.3773 14.0832 14.1952 14.0832 13.9981V1.80162C14.0832 1.65531 14.025 1.515 13.9216 1.41156C13.8181 1.30811 13.6778 1.25 13.5316 1.25Z" fill="#494950"/>
</svg>
