<svg width="17" height="16" viewBox="0 0 17 16" fill="none" xmlns="http://www.w3.org/2000/svg">
<path d="M6.79014 7.34961C6.64383 7.34961 6.50353 7.40772 6.40009 7.51117C6.29664 7.61462 6.23853 7.75492 6.23853 7.90123V13.9995C6.23853 14.1966 6.34368 14.3786 6.51436 14.4772C6.68498 14.5758 6.89529 14.5758 7.06592 14.4772C7.2366 14.3786 7.34176 14.1966 7.34176 13.9995V7.90123C7.34176 7.75492 7.28365 7.61461 7.1802 7.51117C7.07675 7.40772 6.93645 7.34961 6.79014 7.34961Z" fill="#494950"/>
<path d="M10.2862 4.29883C10.1399 4.29883 9.99962 4.35694 9.89618 4.46039C9.79273 4.56383 9.73462 4.70414 9.73462 4.85038V13.9978C9.73462 14.1949 9.83977 14.3769 10.0105 14.4755C10.1811 14.574 10.3914 14.574 10.562 14.4755C10.7327 14.3769 10.8379 14.1949 10.8379 13.9978V4.85038C10.8379 4.70414 10.7797 4.56383 10.6763 4.46039C10.5728 4.35694 10.4325 4.29883 10.2862 4.29883Z" fill="#494950"/>
<path d="M3.2926 10.3966C3.14788 10.3989 3.00988 10.4581 2.90838 10.5613C2.80688 10.6644 2.75 10.8034 2.75 10.9482V13.9973C2.75 14.1944 2.85515 14.3765 3.02584 14.475C3.19646 14.5736 3.40676 14.5736 3.57739 14.475C3.74807 14.3765 3.85323 14.1944 3.85323 13.9973V10.9482C3.85323 10.8003 3.79389 10.6586 3.68849 10.5549C3.58305 10.4512 3.44045 10.3941 3.2926 10.3966Z" fill="#494950"/>
<path d="M13.7818 1.25C13.6355 1.25 13.4952 1.30811 13.3918 1.41156C13.2883 1.51501 13.2302 1.65531 13.2302 1.80162V13.9981C13.2302 14.1952 13.3354 14.3773 13.506 14.4758C13.6767 14.5744 13.8869 14.5744 14.0576 14.4758C14.2283 14.3773 14.3334 14.1952 14.3334 13.9981V1.80162C14.3334 1.65531 14.2753 1.515 14.1718 1.41156C14.0684 1.30811 13.9281 1.25 13.7818 1.25Z" fill="#494950"/>
</svg>
