<svg width="16" height="16" viewBox="0 0 16 16" fill="none" xmlns="http://www.w3.org/2000/svg">
<path d="M6.0399 7.34961C5.89359 7.34961 5.75328 7.40772 5.64984 7.51117C5.5464 7.61462 5.48828 7.75492 5.48828 7.90123V13.9995C5.48828 14.1966 5.59343 14.3786 5.76412 14.4772C5.93474 14.5758 6.14504 14.5758 6.31568 14.4772C6.48635 14.3786 6.59151 14.1966 6.59151 13.9995V7.90123C6.59151 7.75492 6.5334 7.61461 6.42995 7.51117C6.32651 7.40772 6.1862 7.34961 6.0399 7.34961Z" fill="#494950"/>
<path d="M9.53599 4.29883C9.38968 4.29883 9.24938 4.35694 9.14593 4.46039C9.04249 4.56383 8.98438 4.70414 8.98438 4.85038V13.9978C8.98438 14.1949 9.08953 14.3769 9.26021 14.4755C9.43083 14.574 9.64114 14.574 9.81177 14.4755C9.98245 14.3769 10.0876 14.1949 10.0876 13.9978V4.85038C10.0876 4.70414 10.0295 4.56383 9.92605 4.46039C9.8226 4.35694 9.6823 4.29883 9.53599 4.29883Z" fill="#494950"/>
<path d="M2.5426 10.3966C2.39788 10.3989 2.25988 10.4581 2.15838 10.5613C2.05688 10.6644 2 10.8034 2 10.9482V13.9973C2 14.1944 2.10515 14.3765 2.27584 14.475C2.44646 14.5736 2.65676 14.5736 2.82739 14.475C2.99807 14.3765 3.10323 14.1944 3.10323 13.9973V10.9482C3.10323 10.8003 3.04389 10.6586 2.93849 10.5549C2.83305 10.4512 2.69045 10.3941 2.5426 10.3966Z" fill="#494950"/>
<path d="M13.0316 1.25C12.8853 1.25 12.745 1.30811 12.6415 1.41156C12.5381 1.51501 12.48 1.65531 12.48 1.80162V13.9981C12.48 14.1952 12.5851 14.3773 12.7558 14.4758C12.9264 14.5744 13.1367 14.5744 13.3074 14.4758C13.4781 14.3773 13.5832 14.1952 13.5832 13.9981V1.80162C13.5832 1.65531 13.525 1.515 13.4216 1.41156C13.3181 1.30811 13.1778 1.25 13.0316 1.25Z" fill="#494950"/>
</svg>
