<svg width="17" height="16" viewBox="0 0 17 16" fill="none" xmlns="http://www.w3.org/2000/svg">
<path d="M6.29014 7.34961C6.14383 7.34961 6.00353 7.40772 5.90009 7.51117C5.79664 7.61462 5.73853 7.75492 5.73853 7.90123V13.9995C5.73853 14.1966 5.84368 14.3786 6.01436 14.4772C6.18498 14.5758 6.39529 14.5758 6.56592 14.4772C6.7366 14.3786 6.84176 14.1966 6.84176 13.9995V7.90123C6.84176 7.75492 6.78365 7.61461 6.6802 7.51117C6.57675 7.40772 6.43645 7.34961 6.29014 7.34961Z" fill="#494950"/>
<path d="M9.78611 4.29883C9.63981 4.29883 9.4995 4.35694 9.39606 4.46039C9.29261 4.56383 9.2345 4.70414 9.2345 4.85038V13.9978C9.2345 14.1949 9.33965 14.3769 9.51033 14.4755C9.68095 14.574 9.89126 14.574 10.0619 14.4755C10.2326 14.3769 10.3377 14.1949 10.3377 13.9978V4.85038C10.3377 4.70414 10.2796 4.56383 10.1762 4.46039C10.0727 4.35694 9.93242 4.29883 9.78611 4.29883Z" fill="#494950"/>
<path d="M2.7926 10.3966C2.64788 10.3989 2.50988 10.4581 2.40838 10.5613C2.30688 10.6644 2.25 10.8034 2.25 10.9482V13.9973C2.25 14.1944 2.35515 14.3765 2.52584 14.475C2.69646 14.5736 2.90676 14.5736 3.07739 14.475C3.24807 14.3765 3.35323 14.1944 3.35323 13.9973V10.9482C3.35323 10.8003 3.29389 10.6586 3.18849 10.5549C3.08305 10.4512 2.94045 10.3941 2.7926 10.3966Z" fill="#494950"/>
<path d="M13.2817 1.25C13.1354 1.25 12.9951 1.30811 12.8917 1.41156C12.7882 1.51501 12.7301 1.65531 12.7301 1.80162V13.9981C12.7301 14.1952 12.8353 14.3773 13.0059 14.4758C13.1766 14.5744 13.3868 14.5744 13.5575 14.4758C13.7282 14.3773 13.8333 14.1952 13.8333 13.9981V1.80162C13.8333 1.65531 13.7752 1.515 13.6717 1.41156C13.5683 1.30811 13.428 1.25 13.2817 1.25Z" fill="#494950"/>
</svg>
