<svg width="17" height="16" viewBox="0 0 17 16" fill="none" xmlns="http://www.w3.org/2000/svg">
<path d="M6.7899 7.34961C6.64359 7.34961 6.50328 7.40772 6.39984 7.51117C6.2964 7.61462 6.23828 7.75492 6.23828 7.90123V13.9995C6.23828 14.1966 6.34343 14.3786 6.51412 14.4772C6.68474 14.5758 6.89504 14.5758 7.06568 14.4772C7.23635 14.3786 7.34151 14.1966 7.34151 13.9995V7.90123C7.34151 7.75492 7.2834 7.61461 7.17995 7.51117C7.07651 7.40772 6.9362 7.34961 6.7899 7.34961Z" fill="#494950"/>
<path d="M10.286 4.29883C10.1397 4.29883 9.99938 4.35694 9.89593 4.46039C9.79249 4.56383 9.73438 4.70414 9.73438 4.85038V13.9978C9.73438 14.1949 9.83953 14.3769 10.0102 14.4755C10.1808 14.574 10.3911 14.574 10.5618 14.4755C10.7324 14.3769 10.8376 14.1949 10.8376 13.9978V4.85038C10.8376 4.70414 10.7795 4.56383 10.676 4.46039C10.5726 4.35694 10.4323 4.29883 10.286 4.29883Z" fill="#494950"/>
<path d="M3.2926 10.3966C3.14788 10.3989 3.00988 10.4581 2.90838 10.5613C2.80688 10.6644 2.75 10.8034 2.75 10.9482V13.9973C2.75 14.1944 2.85515 14.3765 3.02584 14.475C3.19646 14.5736 3.40676 14.5736 3.57739 14.475C3.74807 14.3765 3.85323 14.1944 3.85323 13.9973V10.9482C3.85323 10.8003 3.79389 10.6586 3.68849 10.5549C3.58305 10.4512 3.44045 10.3941 3.2926 10.3966Z" fill="#494950"/>
<path d="M13.7816 1.25C13.6353 1.25 13.495 1.30811 13.3915 1.41156C13.2881 1.51501 13.23 1.65531 13.23 1.80162V13.9981C13.23 14.1952 13.3351 14.3773 13.5058 14.4758C13.6764 14.5744 13.8867 14.5744 14.0574 14.4758C14.2281 14.3773 14.3332 14.1952 14.3332 13.9981V1.80162C14.3332 1.65531 14.275 1.515 14.1716 1.41156C14.0681 1.30811 13.9278 1.25 13.7816 1.25Z" fill="#494950"/>
</svg>
