<svg width="17" height="16" viewBox="0 0 17 16" fill="none" xmlns="http://www.w3.org/2000/svg">
<path d="M6.2899 7.34961C6.14359 7.34961 6.00328 7.40772 5.89984 7.51117C5.7964 7.61462 5.73828 7.75492 5.73828 7.90123V13.9995C5.73828 14.1966 5.84343 14.3786 6.01412 14.4772C6.18474 14.5758 6.39504 14.5758 6.56568 14.4772C6.73635 14.3786 6.84151 14.1966 6.84151 13.9995V7.90123C6.84151 7.75492 6.7834 7.61461 6.67995 7.51117C6.57651 7.40772 6.4362 7.34961 6.2899 7.34961Z" fill="#494950"/>
<path d="M9.78599 4.29883C9.63968 4.29883 9.49938 4.35694 9.39593 4.46039C9.29249 4.56383 9.23438 4.70414 9.23438 4.85038V13.9978C9.23438 14.1949 9.33953 14.3769 9.51021 14.4755C9.68083 14.574 9.89114 14.574 10.0618 14.4755C10.2324 14.3769 10.3376 14.1949 10.3376 13.9978V4.85038C10.3376 4.70414 10.2795 4.56383 10.176 4.46039C10.0726 4.35694 9.9323 4.29883 9.78599 4.29883Z" fill="#494950"/>
<path d="M2.7926 10.3966C2.64788 10.3989 2.50988 10.4581 2.40838 10.5613C2.30688 10.6644 2.25 10.8034 2.25 10.9482V13.9973C2.25 14.1944 2.35515 14.3765 2.52584 14.475C2.69646 14.5736 2.90676 14.5736 3.07739 14.475C3.24807 14.3765 3.35323 14.1944 3.35323 13.9973V10.9482C3.35323 10.8003 3.29389 10.6586 3.18849 10.5549C3.08305 10.4512 2.94045 10.3941 2.7926 10.3966Z" fill="#494950"/>
<path d="M13.2816 1.25C13.1353 1.25 12.995 1.30811 12.8915 1.41156C12.7881 1.51501 12.73 1.65531 12.73 1.80162V13.9981C12.73 14.1952 12.8351 14.3773 13.0058 14.4758C13.1764 14.5744 13.3867 14.5744 13.5574 14.4758C13.7281 14.3773 13.8332 14.1952 13.8332 13.9981V1.80162C13.8332 1.65531 13.775 1.515 13.6716 1.41156C13.5681 1.30811 13.4278 1.25 13.2816 1.25Z" fill="#494950"/>
</svg>
