<svg width="16" height="16" viewBox="0 0 16 16" fill="none" xmlns="http://www.w3.org/2000/svg">
<path fill-rule="evenodd" clip-rule="evenodd" d="M3.00016 2H5.66683V3H14.6668V3.66667H5.66683V4.66667H3.00016V3.66667H1.3335V3H3.00016V2ZM3.66683 4H5.00016V2.66667H3.66683V4Z" fill="black"/>
<path fill-rule="evenodd" clip-rule="evenodd" d="M6.66683 6.66667H9.3335V7.66667H14.6668V8.33333H9.3335V9.33333H6.66683V8.33333H1.3335V7.66667H6.66683V6.66667ZM7.3335 8.66667H8.66683V7.33333H7.3335V8.66667Z" fill="black"/>
<path fill-rule="evenodd" clip-rule="evenodd" d="M10.3335 11.3333V12.3333H1.3335V13H10.3335V14H13.0002V13H14.6668V12.3333H13.0002V11.3333H10.3335ZM12.3335 13.3333H11.0002V12H12.3335V13.3333Z" fill="black"/>
</svg>
