<svg width="16" height="16" viewBox="0 0 16 16" fill="none" xmlns="http://www.w3.org/2000/svg">
<path fill-rule="evenodd" clip-rule="evenodd" d="M3.4069 8.81288C3.4069 6.45288 5.3269 4.53288 7.6869 4.53288C10.0469 4.53288 11.9669 6.45288 11.9669 8.81288C11.9669 11.1729 10.0469 13.0929 7.6869 13.0929C5.3269 13.0929 3.4069 11.1729 3.4069 8.81288ZM4.3069 8.81288C4.3069 10.6795 5.8269 12.1929 7.6869 12.1929V12.1995C9.55357 12.1995 11.0669 10.6795 11.0669 8.81954C11.0669 8.09288 10.8336 7.42621 10.4402 6.87288L8.6869 9.46621C8.47357 9.80621 8.10023 10.0129 7.6869 10.0129C7.40186 10.012 7.12656 9.90913 6.91074 9.72293C6.69492 9.53673 6.55283 9.27948 6.51016 8.99765C6.46748 8.71583 6.52703 8.42803 6.67805 8.18629C6.82906 7.94454 7.06158 7.7648 7.33357 7.67954L10.3202 6.71954C9.70023 5.93954 8.75357 5.43288 7.6869 5.43288C5.82023 5.43288 4.3069 6.94621 4.3069 8.81288ZM7.93357 8.97288L8.40023 8.27954V8.27288L7.60023 8.53288C7.47357 8.57288 7.3869 8.68621 7.3869 8.81288C7.3869 9.07954 7.7869 9.19954 7.93357 8.97288Z" fill="black"/>
<path fill-rule="evenodd" clip-rule="evenodd" d="M13.6201 4.86622L12.6734 5.59956H12.6667C13.2667 6.52622 13.6201 7.62622 13.6201 8.81289C13.6201 12.0862 10.9601 14.7462 7.68675 14.7462C4.41342 14.7462 1.75342 11.9329 1.75342 8.81289C1.75342 5.69289 4.17342 3.13289 7.24008 2.89956V2.11289H6.02675V1.21289H9.35342V2.11289H8.14008V2.89956C9.67655 3.01891 11.1063 3.73139 12.1268 4.88622L13.0668 4.15289L13.6201 4.86622ZM2.65342 8.81956C2.65342 11.5929 4.90675 13.8529 7.68675 13.8529C10.4601 13.8529 12.7201 11.5929 12.7201 8.81956C12.7201 6.04622 10.4601 3.78622 7.68675 3.78622C4.91342 3.78622 2.65342 6.04622 2.65342 8.81956Z" fill="black"/>
</svg>
