<svg width="24" height="24" viewBox="0 0 24 24" fill="none" xmlns="http://www.w3.org/2000/svg">
<path fill-rule="evenodd" clip-rule="evenodd" d="M5.11011 13.2203C5.11011 9.68029 7.99011 6.80029 11.5301 6.80029C15.0701 6.80029 17.9501 9.68029 17.9501 13.2203C17.9501 16.7603 15.0701 19.6403 11.5301 19.6403C7.99011 19.6403 5.11011 16.7603 5.11011 13.2203ZM6.46011 13.2203C6.46011 16.0203 8.74011 18.2903 11.5301 18.2903V18.3003C14.3301 18.3003 16.6001 16.0203 16.6001 13.2303C16.6001 12.1403 16.2501 11.1403 15.6601 10.3103L13.0301 14.2003C12.7101 14.7103 12.1501 15.0203 11.5301 15.0203C11.1026 15.0189 10.6896 14.8647 10.3659 14.5854C10.0421 14.3061 9.829 13.9202 9.76499 13.4975C9.70098 13.0747 9.7903 12.643 10.0168 12.2804C10.2434 11.9178 10.5921 11.6482 11.0001 11.5203L15.4801 10.0803C14.5501 8.91029 13.1301 8.15029 11.5301 8.15029C8.73011 8.15029 6.46011 10.4203 6.46011 13.2203ZM11.9001 13.4603L12.6001 12.4203V12.4103L11.4001 12.8003C11.2101 12.8603 11.0801 13.0303 11.0801 13.2203C11.0801 13.6203 11.6801 13.8003 11.9001 13.4603Z" fill="black"/>
<path fill-rule="evenodd" clip-rule="evenodd" d="M20.4299 7.30031L19.0099 8.40031H18.9999C19.8999 9.79031 20.4299 11.4403 20.4299 13.2203C20.4299 18.1303 16.4399 22.1203 11.5299 22.1203C6.61988 22.1203 2.62988 17.9003 2.62988 13.2203C2.62988 8.54031 6.25988 4.70031 10.8599 4.35031V3.17031H9.03988V1.82031H14.0299V3.17031H12.2099V4.35031C14.5146 4.52934 16.6592 5.59807 18.1899 7.33031L19.5999 6.23031L20.4299 7.30031ZM3.97988 13.2303C3.97988 17.3903 7.35988 20.7803 11.5299 20.7803C15.6899 20.7803 19.0799 17.3903 19.0799 13.2303C19.0799 9.07031 15.6899 5.68031 11.5299 5.68031C7.36988 5.68031 3.97988 9.07031 3.97988 13.2303Z" fill="black"/>
</svg>
