<svg width="16" height="16" viewBox="0 0 16 16" fill="none" xmlns="http://www.w3.org/2000/svg">
<path fill-rule="evenodd" clip-rule="evenodd" d="M3.40666 8.81288C3.40666 6.45288 5.32666 4.53288 7.68666 4.53288C10.0467 4.53288 11.9667 6.45288 11.9667 8.81288C11.9667 11.1729 10.0467 13.0929 7.68666 13.0929C5.32666 13.0929 3.40666 11.1729 3.40666 8.81288ZM4.30666 8.81288C4.30666 10.6795 5.82666 12.1929 7.68666 12.1929V12.1995C9.55332 12.1995 11.0667 10.6795 11.0667 8.81954C11.0667 8.09288 10.8333 7.42621 10.44 6.87288L8.68666 9.46621C8.47332 9.80621 8.09999 10.0129 7.68666 10.0129C7.40162 10.012 7.12631 9.90913 6.91049 9.72293C6.69468 9.53673 6.55259 9.27948 6.50991 8.99765C6.46724 8.71583 6.52679 8.42803 6.6778 8.18629C6.82882 7.94454 7.06134 7.7648 7.33332 7.67954L10.32 6.71954C9.69999 5.93954 8.75332 5.43288 7.68666 5.43288C5.81999 5.43288 4.30666 6.94621 4.30666 8.81288ZM7.93332 8.97288L8.39999 8.27954V8.27288L7.59999 8.53288C7.47332 8.57288 7.38666 8.68621 7.38666 8.81288C7.38666 9.07954 7.78666 9.19954 7.93332 8.97288Z" fill="black"/>
<path fill-rule="evenodd" clip-rule="evenodd" d="M13.6198 4.86622L12.6732 5.59956H12.6665C13.2665 6.52622 13.6198 7.62622 13.6198 8.81289C13.6198 12.0862 10.9598 14.7462 7.68651 14.7462C4.41317 14.7462 1.75317 11.9329 1.75317 8.81289C1.75317 5.69289 4.17317 3.13289 7.23984 2.89956V2.11289H6.02651V1.21289H9.35317V2.11289H8.13984V2.89956C9.6763 3.01891 11.106 3.73139 12.1265 4.88622L13.0665 4.15289L13.6198 4.86622ZM2.65317 8.81956C2.65317 11.5929 4.90651 13.8529 7.68651 13.8529C10.4598 13.8529 12.7198 11.5929 12.7198 8.81956C12.7198 6.04622 10.4598 3.78622 7.68651 3.78622C4.91317 3.78622 2.65317 6.04622 2.65317 8.81956Z" fill="black"/>
</svg>
