<svg width="24" height="28" viewBox="0 0 24 28" fill="none" xmlns="http://www.w3.org/2000/svg">
<g clip-path="url(#clip0_211_665197)">
<g clip-path="url(#clip1_211_665197)">
<path fill-rule="evenodd" clip-rule="evenodd" d="M12.0001 1C7.30564 1 3.50006 4.80558 3.50006 9.5C3.50006 12.2993 4.85323 14.7825 6.94114 16.3313L3.34766 22.5554L5.94573 24.0554L9.63438 17.6665C10.3854 17.8836 11.1791 18 12.0001 18C16.6945 18 20.5001 14.1944 20.5001 9.5C20.5001 4.80558 16.6945 1 12.0001 1ZM4.50006 9.5C4.50006 5.35786 7.85793 2 12.0001 2C16.1422 2 19.5001 5.35786 19.5001 9.5C19.5001 13.6421 16.1422 17 12.0001 17C7.85793 17 4.50006 13.6421 4.50006 9.5ZM4.71368 22.1894L7.62981 17.1385L8.49584 17.6385L5.57971 22.6894L4.71368 22.1894Z" fill="#949599"/>
</g>
</g>
<defs>
<clipPath id="clip0_211_665197">
<rect width="24" height="27" fill="white" transform="translate(0 0.5)"/>
</clipPath>
<clipPath id="clip1_211_665197">
<rect width="24" height="24" fill="white" transform="translate(0 0.5)"/>
</clipPath>
</defs>
</svg>
