<svg width="16" height="16" viewBox="0 0 16 16" fill="none" xmlns="http://www.w3.org/2000/svg">
<path d="M3.66666 13.1175C4.4996 13.115 5.30339 12.8106 5.92914 12.2609C6.55489 11.7111 6.9602 10.9532 7.07 10.1275H7.80666L9.99333 5.78086L10.5 6.75419C9.78238 7.21513 9.26674 7.93154 9.05746 8.75836C8.84817 9.58518 8.96089 10.4606 9.3728 11.2075C9.7847 11.9543 10.465 12.5167 11.276 12.7808C12.087 13.045 12.968 12.9911 13.7407 12.63C14.5134 12.269 15.1201 11.6278 15.4379 10.8364C15.7556 10.0449 15.7608 9.16221 15.4523 8.36707C15.1437 7.57193 14.5446 6.92374 13.7761 6.55373C13.0077 6.18372 12.1273 6.11955 11.3133 6.37419L9.96 3.78086H11.3333C11.3915 3.78138 11.4472 3.80473 11.4883 3.84587C11.5295 3.88702 11.5528 3.94267 11.5533 4.00086V4.38086H12.4467V4.00086C12.4472 3.85419 12.4188 3.70886 12.3631 3.57317C12.3074 3.43748 12.2256 3.3141 12.1222 3.21008C12.0188 3.10606 11.8959 3.02345 11.7605 2.96696C11.6252 2.91047 11.48 2.88121 11.3333 2.88086H8.47333L9.52 4.88753H5.69466L5.10666 3.78086H6.07333L5.59333 2.88086H2.78L3.26 3.78086H4.08733L4.92733 5.36086V5.36753L4.42066 6.30753C4.1736 6.25006 3.92098 6.21987 3.66733 6.21753C3.21427 6.21753 2.76565 6.30676 2.34707 6.48014C1.9285 6.65352 1.54817 6.90765 1.22781 7.22801C0.90745 7.54837 0.653325 7.9287 0.479947 8.34727C0.306568 8.76584 0.217331 9.21447 0.217331 9.66753C0.217331 10.1206 0.306568 10.5692 0.479947 10.9878C0.653325 11.4064 0.90745 11.7867 1.22781 12.107C1.54817 12.4274 1.9285 12.6815 2.34707 12.8549C2.76565 13.0283 3.2136 13.1175 3.66666 13.1175ZM12.1933 9.98753H13.2067L11.74 7.18753C11.934 7.13886 12.1333 7.11419 12.3333 7.11419C12.8383 7.11419 13.332 7.26394 13.7519 7.54451C14.1718 7.82507 14.499 8.22385 14.6923 8.69041C14.8856 9.15697 14.9361 9.67036 14.8376 10.1657C14.7391 10.661 14.4959 11.1159 14.1388 11.473C13.7817 11.8301 13.3268 12.0733 12.8315 12.1718C12.3362 12.2703 11.8228 12.2198 11.3562 12.0265C10.8897 11.8332 10.4909 11.506 10.2103 11.0861C9.92975 10.6662 9.78 10.1725 9.78 9.66753C9.78196 9.24765 9.88618 8.83458 10.0837 8.46403C10.2811 8.09348 10.5659 7.77662 10.9133 7.54086L12.1933 9.98753ZM8.98 5.78086L7.616 8.50219L6.16933 5.78086H8.98ZM5.43333 6.31419L6.982 9.22819H3.86666L5.43333 6.31419ZM3.66666 7.11753C3.76733 7.12086 3.868 7.13019 3.96733 7.14486L2.914 9.10753L3.44066 10.1275H6.174C6.08621 10.6036 5.8646 11.0449 5.53511 11.3996C5.20562 11.7543 4.78188 12.0079 4.31352 12.1305C3.84516 12.2531 3.35157 12.2397 2.89053 12.0919C2.42949 11.9442 2.02009 11.6681 1.71027 11.2961C1.40045 10.924 1.20304 10.4714 1.14114 9.99128C1.07925 9.51111 1.15543 9.02325 1.36078 8.58481C1.56612 8.14637 1.89213 7.77551 2.30062 7.51565C2.70912 7.2558 3.18252 7.1177 3.66666 7.11753Z" fill="black"/>
</svg>
