<svg width="16" height="16" viewBox="0 0 16 16" fill="none" xmlns="http://www.w3.org/2000/svg">
<path d="M3.66662 13.1175C4.49956 13.115 5.30334 12.8106 5.92909 12.2609C6.55484 11.7111 6.96015 10.9532 7.06995 10.1275H7.80662L9.99329 5.78086L10.5 6.75419C9.78234 7.21513 9.26669 7.93154 9.05741 8.75836C8.84813 9.58518 8.96085 10.4606 9.37275 11.2075C9.78466 11.9543 10.465 12.5167 11.2759 12.7808C12.0869 13.045 12.9679 12.9911 13.7407 12.63C14.5134 12.269 15.12 11.6278 15.4378 10.8364C15.7556 10.0449 15.7607 9.16221 15.4522 8.36707C15.1437 7.57193 14.5445 6.92374 13.7761 6.55373C13.0076 6.18372 12.1273 6.11955 11.3133 6.37419L9.95995 3.78086H11.3333C11.3915 3.78138 11.4471 3.80473 11.4883 3.84587C11.5294 3.88702 11.5528 3.94267 11.5533 4.00086V4.38086H12.4466V4.00086C12.4471 3.85419 12.4188 3.70886 12.3631 3.57317C12.3074 3.43748 12.2255 3.3141 12.1221 3.21008C12.0187 3.10606 11.8958 3.02345 11.7605 2.96696C11.6251 2.91047 11.48 2.88121 11.3333 2.88086H8.47329L9.51995 4.88753H5.69462L5.10662 3.78086H6.07329L5.59329 2.88086H2.77995L3.25995 3.78086H4.08729L4.92729 5.36086V5.36753L4.42062 6.30753C4.17356 6.25006 3.92093 6.21987 3.66729 6.21753C3.21422 6.21753 2.7656 6.30676 2.34703 6.48014C1.92845 6.65352 1.54813 6.90765 1.22777 7.22801C0.907405 7.54837 0.65328 7.9287 0.479901 8.34727C0.306522 8.76584 0.217285 9.21447 0.217285 9.66753C0.217285 10.1206 0.306522 10.5692 0.479901 10.9878C0.65328 11.4064 0.907405 11.7867 1.22777 12.107C1.54813 12.4274 1.92845 12.6815 2.34703 12.8549C2.7656 13.0283 3.21356 13.1175 3.66662 13.1175ZM12.1933 9.98753H13.2066L11.74 7.18753C11.934 7.13886 12.1333 7.11419 12.3333 7.11419C12.8383 7.11419 13.3319 7.26394 13.7518 7.54451C14.1717 7.82507 14.499 8.22385 14.6923 8.69041C14.8855 9.15697 14.9361 9.67036 14.8376 10.1657C14.739 10.661 14.4959 11.1159 14.1388 11.473C13.7817 11.8301 13.3267 12.0733 12.8314 12.1718C12.3361 12.2703 11.8227 12.2198 11.3562 12.0265C10.8896 11.8332 10.4908 11.506 10.2103 11.0861C9.9297 10.6662 9.77995 10.1725 9.77995 9.66753C9.78191 9.24765 9.88614 8.83458 10.0836 8.46403C10.2811 8.09348 10.5658 7.77662 10.9133 7.54086L12.1933 9.98753ZM8.97995 5.78086L7.61595 8.50219L6.16928 5.78086H8.97995ZM5.43329 6.31419L6.98195 9.22819H3.86662L5.43329 6.31419ZM3.66662 7.11753C3.76729 7.12086 3.86795 7.13019 3.96729 7.14486L2.91395 9.10753L3.44062 10.1275H6.17395C6.08617 10.6036 5.86456 11.0449 5.53506 11.3996C5.20557 11.7543 4.78184 12.0079 4.31348 12.1305C3.84512 12.2531 3.35152 12.2397 2.89048 12.0919C2.42944 11.9442 2.02004 11.6681 1.71023 11.2961C1.40041 10.924 1.20299 10.4714 1.1411 9.99128C1.0792 9.51111 1.15538 9.02325 1.36073 8.58481C1.56608 8.14637 1.89208 7.77551 2.30058 7.51565C2.70907 7.2558 3.18248 7.1177 3.66662 7.11753Z" fill="black"/>
</svg>
