<svg width="17" height="16" viewBox="0 0 17 16" fill="none" xmlns="http://www.w3.org/2000/svg">
<g clip-path="url(#clip0_310_1626)">
<path d="M4.16662 13.1175C4.99956 13.115 5.80334 12.8106 6.42909 12.2609C7.05484 11.7111 7.46015 10.9532 7.56995 10.1275H8.30662L10.4933 5.78086L11 6.75419C10.2823 7.21513 9.76669 7.93154 9.55741 8.75836C9.34813 9.58518 9.46085 10.4606 9.87275 11.2075C10.2847 11.9543 10.965 12.5167 11.7759 12.7808C12.5869 13.045 13.4679 12.9911 14.2407 12.63C15.0134 12.269 15.62 11.6278 15.9378 10.8364C16.2556 10.0449 16.2607 9.16221 15.9522 8.36707C15.6437 7.57193 15.0445 6.92374 14.2761 6.55373C13.5076 6.18372 12.6273 6.11955 11.8133 6.37419L10.46 3.78086H11.8333C11.8915 3.78138 11.9471 3.80473 11.9883 3.84587C12.0294 3.88702 12.0528 3.94267 12.0533 4.00086V4.38086H12.9466V4.00086C12.9471 3.85419 12.9188 3.70886 12.8631 3.57317C12.8074 3.43748 12.7255 3.3141 12.6221 3.21008C12.5187 3.10606 12.3958 3.02345 12.2605 2.96696C12.1251 2.91047 11.98 2.88121 11.8333 2.88086H8.97329L10.02 4.88753H6.19462L5.60662 3.78086H6.57329L6.09329 2.88086H3.27995L3.75995 3.78086H4.58729L5.42729 5.36086V5.36753L4.92062 6.30753C4.67356 6.25006 4.42093 6.21987 4.16729 6.21753C3.71422 6.21753 3.2656 6.30676 2.84703 6.48014C2.42845 6.65352 2.04813 6.90765 1.72777 7.22801C1.4074 7.54837 1.15328 7.9287 0.979901 8.34727C0.806522 8.76584 0.717285 9.21447 0.717285 9.66753C0.717285 10.1206 0.806522 10.5692 0.979901 10.9878C1.15328 11.4064 1.4074 11.7867 1.72777 12.107C2.04813 12.4274 2.42845 12.6815 2.84703 12.8549C3.2656 13.0283 3.71356 13.1175 4.16662 13.1175ZM12.6933 9.98753H13.7066L12.24 7.18753C12.434 7.13886 12.6333 7.11419 12.8333 7.11419C13.3383 7.11419 13.8319 7.26394 14.2518 7.54451C14.6717 7.82507 14.999 8.22385 15.1923 8.69041C15.3855 9.15697 15.4361 9.67036 15.3376 10.1657C15.239 10.661 14.9959 11.1159 14.6388 11.473C14.2817 11.8301 13.8267 12.0733 13.3314 12.1718C12.8361 12.2703 12.3227 12.2198 11.8562 12.0265C11.3896 11.8332 10.9908 11.506 10.7103 11.0861C10.4297 10.6662 10.28 10.1725 10.28 9.66753C10.2819 9.24765 10.3861 8.83458 10.5836 8.46403C10.7811 8.09348 11.0658 7.77662 11.4133 7.54086L12.6933 9.98753ZM9.47995 5.78086L8.11595 8.50219L6.66928 5.78086H9.47995ZM5.93329 6.31419L7.48195 9.22819H4.36662L5.93329 6.31419ZM4.16662 7.11753C4.26729 7.12086 4.36795 7.13019 4.46729 7.14486L3.41395 9.10753L3.94062 10.1275H6.67395C6.58617 10.6036 6.36456 11.0449 6.03506 11.3996C5.70557 11.7543 5.28184 12.0079 4.81348 12.1305C4.34512 12.2531 3.85152 12.2397 3.39048 12.0919C2.92944 11.9442 2.52004 11.6681 2.21023 11.2961C1.90041 10.924 1.70299 10.4714 1.6411 9.99128C1.5792 9.51111 1.65538 9.02325 1.86073 8.58481C2.06608 8.14637 2.39208 7.77551 2.80058 7.51565C3.20907 7.2558 3.68248 7.1177 4.16662 7.11753Z" fill="#494950"/>
</g>
<defs>
<clipPath id="clip0_310_1626">
<rect width="16" height="16" fill="white" transform="translate(0.5)"/>
</clipPath>
</defs>
</svg>
