<svg width="16" height="17" viewBox="0 0 16 17" fill="none" xmlns="http://www.w3.org/2000/svg">
<g clip-path="url(#clip0_310_1679)">
<path d="M6.03003 13.3116C6.72096 14.0099 7.54316 14.5646 8.44932 14.9439C9.35548 15.3232 10.3277 15.5195 11.31 15.5216H13.5C14.0076 15.5263 14.498 15.3378 14.8717 14.9943C15.2455 14.6509 15.4747 14.1782 15.5128 13.672C15.551 13.1658 15.3953 12.6641 15.0772 12.2685C14.7591 11.8729 14.3026 11.613 13.8 11.5416L9.96003 4.35158C9.8466 4.14414 9.69225 3.96189 9.50632 3.81585C9.32039 3.66982 9.10675 3.56304 8.87835 3.50199C8.64994 3.44094 8.41152 3.42688 8.17753 3.46067C7.94353 3.49447 7.71883 3.5754 7.51703 3.69858C7.24303 3.86858 7.02203 4.11258 6.88003 4.40158L6.61003 4.96158C6.49023 4.86841 6.39679 4.74563 6.33893 4.60535C6.28106 4.46506 6.26076 4.3121 6.28003 4.16158V2.19158C6.29686 2.0102 6.27538 1.82731 6.21699 1.65477C6.1586 1.48223 6.0646 1.32388 5.94109 1.19C5.81758 1.05612 5.66731 0.949683 5.50002 0.877601C5.33274 0.805519 5.15217 0.769397 4.97003 0.771577C4.6786 0.771948 4.39422 0.861163 4.1548 1.02732C3.91539 1.19349 3.73232 1.42869 3.63003 1.70158L2.16003 4.69158L1.21003 5.39158C0.998501 5.55393 0.825256 5.76081 0.702561 5.99756C0.579867 6.23431 0.510724 6.49514 0.500029 6.76158C0.482103 7.04496 0.526539 7.32883 0.630205 7.59317C0.733871 7.85752 0.894246 8.09592 1.10003 8.29158L6.03003 13.3116ZM1.79003 6.20158L2.19003 5.90158L7.33003 10.9716H8.75003L2.98003 5.27158L4.54003 2.12158C4.56603 2.02556 4.62152 1.94013 4.69866 1.87733C4.77581 1.81453 4.87073 1.77754 4.97003 1.77158C5.12003 1.77158 5.28003 1.81158 5.28003 2.19158V4.16158C5.28003 5.29158 5.91003 6.03158 6.89003 6.03158H7.20003L7.78003 4.84158C7.84006 4.72313 7.9313 4.62332 8.04391 4.55294C8.15652 4.48255 8.28621 4.44427 8.41899 4.44221C8.55177 4.44015 8.68259 4.4744 8.79733 4.54126C8.91206 4.60811 9.00636 4.70504 9.07003 4.82158L9.70003 5.99158L8.44003 6.66158V7.80158L10.17 6.88158L10.58 7.66158L9.24003 8.37158V9.51158L11.06 8.55158L11.45 9.29158L9.89003 10.1216V11.2616L11.92 10.1716L13.04 12.2616L13.2 12.5216H13.5C13.7652 12.5216 14.0196 12.6269 14.2071 12.8145C14.3947 13.002 14.5 13.2564 14.5 13.5216C14.5 13.7868 14.3947 14.0411 14.2071 14.2287C14.0196 14.4162 13.7652 14.5216 13.5 14.5216H11.31C9.59414 14.5139 7.95108 13.8272 6.74003 12.6116L1.79003 7.57158C1.69034 7.47497 1.61278 7.35788 1.56272 7.2284C1.51265 7.09892 1.49126 6.96012 1.50003 6.82158C1.50394 6.70399 1.53165 6.58843 1.58149 6.48186C1.63134 6.37529 1.70228 6.27994 1.79003 6.20158Z" fill="black"/>
</g>
<defs>
<clipPath id="clip0_310_1679">
<rect width="16" height="16" fill="white" transform="translate(0 0.0214844)"/>
</clipPath>
</defs>
</svg>
