<svg width="17" height="16" viewBox="0 0 17 16" fill="none" xmlns="http://www.w3.org/2000/svg">
<g clip-path="url(#clip0_310_1164)">
<path d="M6.27997 13.2901C6.9709 13.9884 7.7931 14.5431 8.69926 14.9224C9.60542 15.3017 10.5776 15.498 11.56 15.5001H13.75C14.2575 15.5048 14.7479 15.3163 15.1217 14.9728C15.4954 14.6294 15.7246 14.1567 15.7628 13.6505C15.8009 13.1443 15.6452 12.6426 15.3271 12.247C15.0091 11.8514 14.5525 11.5915 14.05 11.5201L10.21 4.33009C10.0965 4.12266 9.94219 3.9404 9.75626 3.79437C9.57033 3.64833 9.35669 3.54156 9.12829 3.4805C8.89988 3.41945 8.66146 3.4054 8.42747 3.43919C8.19347 3.47298 7.96877 3.55392 7.76697 3.67709C7.49297 3.84709 7.27197 4.09109 7.12997 4.38009L6.85997 4.94009C6.74017 4.84693 6.64673 4.72415 6.58886 4.58386C6.53099 4.44357 6.5107 4.29062 6.52997 4.14009V2.17009C6.54679 1.98872 6.52532 1.80583 6.46693 1.63329C6.40854 1.46075 6.31454 1.3024 6.19103 1.16852C6.06752 1.03463 5.91725 0.928199 5.74996 0.856117C5.58268 0.784035 5.40211 0.747913 5.21997 0.750093C4.92854 0.750463 4.64416 0.839679 4.40474 1.00584C4.16532 1.172 3.98226 1.40721 3.87997 1.68009L2.40997 4.67009L1.45997 5.37009C1.24844 5.53245 1.07519 5.73933 0.9525 5.97608C0.829806 6.21283 0.760663 6.47365 0.749968 6.74009C0.732042 7.02348 0.776478 7.30734 0.880144 7.57169C0.98381 7.83604 1.14418 8.07444 1.34997 8.27009L6.27997 13.2901ZM2.03997 6.18009L2.43997 5.88009L7.57997 10.9501H8.99997L3.22997 5.25009L4.78997 2.10009C4.81597 2.00407 4.87145 1.91864 4.9486 1.85585C5.02575 1.79305 5.12067 1.75606 5.21997 1.75009C5.36997 1.75009 5.52997 1.79009 5.52997 2.17009V4.14009C5.52997 5.27009 6.15997 6.01009 7.13997 6.01009H7.44997L8.02997 4.82009C8.09 4.70164 8.18124 4.60184 8.29385 4.53145C8.40646 4.46107 8.53615 4.42278 8.66893 4.42072C8.80171 4.41866 8.93253 4.45291 9.04727 4.51977C9.162 4.58663 9.2563 4.68356 9.31997 4.80009L9.94997 5.97009L8.68997 6.64009V7.78009L10.42 6.86009L10.83 7.64009L9.48997 8.35009V9.49009L11.31 8.53009L11.7 9.27009L10.14 10.1001V11.2401L12.17 10.1501L13.29 12.2401L13.45 12.5001H13.75C14.0152 12.5001 14.2695 12.6055 14.4571 12.793C14.6446 12.9805 14.75 13.2349 14.75 13.5001C14.75 13.7653 14.6446 14.0197 14.4571 14.2072C14.2695 14.3947 14.0152 14.5001 13.75 14.5001H11.56C9.84408 14.4924 8.20102 13.8057 6.98997 12.5901L2.03997 7.55009C1.94028 7.45348 1.86272 7.3364 1.81266 7.20692C1.76259 7.07744 1.7412 6.93864 1.74997 6.80009C1.75387 6.68251 1.78159 6.56694 1.83143 6.46038C1.88128 6.35381 1.95222 6.25846 2.03997 6.18009Z" fill="#494950"/>
</g>
<defs>
<clipPath id="clip0_310_1164">
<rect width="16" height="16" fill="white" transform="translate(0.25)"/>
</clipPath>
</defs>
</svg>
