<svg width="25" height="25" viewBox="0 0 25 25" fill="none" xmlns="http://www.w3.org/2000/svg">
<path fill-rule="evenodd" clip-rule="evenodd" d="M11.9389 1.94401C12.1347 1.42751 12.8653 1.42752 13.0611 1.94401L15.6225 8.70304H22.3471C22.9176 8.70304 23.1661 9.42419 22.7167 9.77565L17.2459 14.0546L20.2003 21.6516C20.4191 22.214 19.7639 22.7112 19.2811 22.3491L12.507 17.2685L6.14866 22.3391C5.68097 22.7121 5.01527 22.2459 5.20582 21.6789L7.76527 14.0628L2.28332 9.77567C1.83393 9.42423 2.08245 8.70304 2.65294 8.70304H9.37744L11.9389 1.94401ZM12.5 2.57992L10.0421 9.06566C9.95371 9.29882 9.73035 9.45304 9.48101 9.45304H3.08823L8.31087 13.5374C8.51123 13.6941 8.59102 13.96 8.51 14.2011L6.07883 21.4355L12.1301 16.6098C12.3438 16.4394 12.6456 16.4349 12.8642 16.5989L19.311 21.4339L16.5065 14.2225C16.4106 13.9759 16.4876 13.6955 16.6961 13.5324L21.9118 9.45304H15.519C15.2696 9.45304 15.0463 9.29883 14.9579 9.06566L12.5 2.57992Z" fill="white"/>
<path d="M10.0421 9.06566L12.5 2.57992L14.9579 9.06566C15.0463 9.29883 15.2696 9.45304 15.519 9.45304H21.9118L16.6961 13.5324C16.4876 13.6955 16.4106 13.9759 16.5065 14.2225L19.311 21.4339L12.8642 16.5989C12.6456 16.4349 12.3438 16.4394 12.1301 16.6098L6.07883 21.4355L8.51 14.2011C8.59102 13.96 8.51123 13.6941 8.31087 13.5374L3.08823 9.45304H9.48101C9.73035 9.45304 9.95371 9.29882 10.0421 9.06566Z" fill="white"/>
</svg>
