<svg width="117" height="24" viewBox="0 0 117 24" fill="none" xmlns="http://www.w3.org/2000/svg">
<path d="M11.2124 23.0537C9.09858 23.0685 6.99512 22.7637 4.97687 22.1502C3.14392 21.5986 1.44892 20.6803 0 19.4537L3.90627 14.922C5.02376 15.7813 6.29404 16.4322 7.6534 16.842C8.91925 17.2212 10.2355 17.4163 11.5597 17.4208C12.0547 17.4557 12.551 17.3733 13.0064 17.1808C13.1348 17.1205 13.2434 17.0264 13.3201 16.9092C13.3968 16.792 13.4384 16.6563 13.4405 16.5173C13.4229 16.3432 13.3532 16.178 13.24 16.0424C13.1267 15.9068 12.9751 15.8068 12.8039 15.7549C12.0348 15.4572 11.2342 15.2441 10.4167 15.1196C9.19179 14.8749 8.0199 14.5879 6.90107 14.2584C5.88496 13.9698 4.91212 13.5521 4.00754 13.0161C3.19479 12.5355 2.50661 11.8785 1.99653 11.0961C1.47529 10.244 1.21429 9.26445 1.24422 8.27257C1.23581 7.29965 1.44309 6.33647 1.85186 5.44904C2.26143 4.56592 2.86966 3.78421 3.63138 3.16198C4.48445 2.47403 5.46752 1.95602 6.52491 1.63728C7.81341 1.2517 9.15596 1.06591 10.5035 1.08669C12.3876 1.05496 14.2657 1.30249 16.0736 1.82081C17.6466 2.28206 19.1182 3.02402 20.4139 4.00904L16.8259 8.68198C15.8079 7.97165 14.6726 7.43685 13.4694 7.1008C12.4104 6.77802 11.309 6.60682 10.1997 6.59257C9.7844 6.56294 9.3688 6.64601 8.99888 6.83257C8.88088 6.89398 8.78221 6.98553 8.7134 7.09743C8.6446 7.20932 8.60826 7.33737 8.60826 7.46786C8.62591 7.63243 8.691 7.78874 8.79599 7.91867C8.90098 8.0486 9.04156 8.14683 9.20144 8.20198C9.94445 8.5027 10.7215 8.71597 11.5163 8.83727C12.8064 9.0534 14.0819 9.3457 15.3357 9.71257C16.3599 10.0187 17.3342 10.4655 18.2293 11.0396C19.0104 11.5317 19.6641 12.1937 20.139 12.9737C20.606 13.8129 20.8357 14.7582 20.8045 15.7126C20.821 16.759 20.583 17.7944 20.11 18.7337C19.6971 19.6582 19.0678 20.4754 18.2727 21.1196C17.362 21.7672 16.337 22.2457 15.2489 22.5314C13.9359 22.8928 12.5766 23.0687 11.2124 23.0537Z" fill="#B0B0B0"/>
<path d="M26.9534 7.37003H20.5153V1.3418H40.6976V7.37003H34.1872V22.6312H26.9534V7.37003Z" fill="#B0B0B0"/>
<path d="M41.6525 1.34037H52.3296C53.9614 1.2927 55.5899 1.51221 57.1473 1.98978C58.2988 2.34839 59.3523 2.9565 60.2289 3.7686C60.8573 4.39546 61.3495 5.13976 61.6757 5.95684C62.0233 6.85902 62.195 7.81663 62.1821 8.78036C62.228 10.1835 61.8233 11.5656 61.0247 12.7333C60.2201 13.8392 59.1327 14.7202 57.8707 15.2886L62.9778 22.6298H54.6444L50.5211 16.5309H48.9586V22.6298H41.6525V1.34037ZM52.1126 11.4909C52.8405 11.53 53.5616 11.3367 54.167 10.9404C54.4104 10.7654 54.6062 10.535 54.7374 10.2693C54.8685 10.0035 54.931 9.71042 54.9193 9.41566C54.9401 9.11768 54.8818 8.81951 54.75 8.54995C54.6182 8.28038 54.4174 8.04855 54.167 7.87684C53.5599 7.51168 52.8538 7.33449 52.1415 7.3686H48.9586V11.6039H52.1126V11.4909Z" fill="#B0B0B0"/>
<path d="M105.238 13.4823L109.998 22.6588H117L105.238 0L93.4756 22.6588H100.478L105.238 13.4823Z" fill="#B0B0B0"/>
<path d="M72.4974 13.4823L77.2573 22.6588H84.2596L72.4974 0L60.7352 22.6588H67.7376L72.4974 13.4823Z" fill="#B0B0B0"/>
<path d="M88.8749 10.5041L84.1006 1.3418H77.0983L88.8749 24.0006L100.637 1.3418H93.6348L88.8749 10.5041Z" fill="#B0B0B0"/>
</svg>
