<svg width="117" height="25" viewBox="0 0 117 25" fill="none" xmlns="http://www.w3.org/2000/svg">
<path d="M11.2124 23.5537C9.09858 23.5685 6.99512 23.2637 4.97687 22.6502C3.14392 22.0986 1.44892 21.1803 0 19.9537L3.90627 15.422C5.02376 16.2813 6.29404 16.9322 7.6534 17.342C8.91925 17.7212 10.2355 17.9163 11.5597 17.9208C12.0547 17.9557 12.551 17.8733 13.0064 17.6808C13.1348 17.6205 13.2434 17.5264 13.3201 17.4092C13.3968 17.292 13.4384 17.1563 13.4405 17.0173C13.4229 16.8432 13.3532 16.678 13.24 16.5424C13.1267 16.4068 12.9751 16.3068 12.8039 16.2549C12.0348 15.9572 11.2342 15.7441 10.4167 15.6196C9.19179 15.3749 8.0199 15.0879 6.90107 14.7584C5.88496 14.4698 4.91212 14.0521 4.00754 13.5161C3.19479 13.0355 2.50661 12.3785 1.99653 11.5961C1.47529 10.744 1.21429 9.76445 1.24422 8.77257C1.23581 7.79965 1.44309 6.83647 1.85186 5.94904C2.26143 5.06592 2.86966 4.28421 3.63138 3.66198C4.48445 2.97403 5.46752 2.45602 6.52491 2.13728C7.81341 1.7517 9.15596 1.56591 10.5035 1.58669C12.3876 1.55496 14.2657 1.80249 16.0736 2.32081C17.6466 2.78206 19.1182 3.52402 20.4139 4.50904L16.8259 9.18198C15.8079 8.47165 14.6726 7.93685 13.4694 7.6008C12.4104 7.27802 11.309 7.10682 10.1997 7.09257C9.7844 7.06294 9.3688 7.14601 8.99888 7.33257C8.88088 7.39398 8.78221 7.48553 8.7134 7.59743C8.6446 7.70932 8.60826 7.83737 8.60826 7.96786C8.62591 8.13243 8.691 8.28874 8.79599 8.41867C8.90098 8.5486 9.04156 8.64683 9.20144 8.70198C9.94445 9.0027 10.7215 9.21597 11.5163 9.33727C12.8064 9.5534 14.0819 9.8457 15.3357 10.2126C16.3599 10.5187 17.3342 10.9655 18.2293 11.5396C19.0104 12.0317 19.6641 12.6937 20.139 13.4737C20.606 14.3129 20.8357 15.2582 20.8045 16.2126C20.821 17.259 20.583 18.2944 20.11 19.2337C19.6971 20.1582 19.0678 20.9754 18.2727 21.6196C17.362 22.2672 16.337 22.7457 15.2489 23.0314C13.9359 23.3928 12.5766 23.5687 11.2124 23.5537Z" fill="#FC5200"/>
<path d="M26.9532 7.87003H20.5151V1.8418H40.6975V7.87003H34.1871V23.1312H26.9532V7.87003Z" fill="#FC5200"/>
<path d="M41.6523 1.84037H52.3295C53.9613 1.7927 55.5897 2.01221 57.1472 2.48978C58.2987 2.84839 59.3522 3.4565 60.2288 4.2686C60.8572 4.89546 61.3493 5.63976 61.6756 6.45684C62.0231 7.35902 62.1949 8.31663 62.182 9.28036C62.2278 10.6835 61.8232 12.0656 61.0245 13.2333C60.22 14.3392 59.1326 15.2202 57.8706 15.7886L62.9777 23.1298H54.6443L50.521 17.0309H48.9585V23.1298H41.6523V1.84037ZM52.1125 11.9909C52.8404 12.03 53.5615 11.8367 54.1669 11.4404C54.4103 11.2654 54.6061 11.035 54.7372 10.7693C54.8684 10.5035 54.9308 10.2104 54.9192 9.91566C54.94 9.61768 54.8817 9.31951 54.7499 9.04995C54.6181 8.78038 54.4173 8.54855 54.1669 8.37684C53.5598 8.01168 52.8537 7.83449 52.1414 7.8686H48.9585V12.1039H52.1125V11.9909Z" fill="#FC5200"/>
<path d="M105.238 13.9823L109.998 23.1588H117L105.238 0.5L93.4756 23.1588H100.478L105.238 13.9823Z" fill="#FC5200"/>
<path d="M72.4975 13.9823L77.2574 23.1588H84.2598L72.4975 0.5L60.7354 23.1588H67.7377L72.4975 13.9823Z" fill="#FC5200"/>
<path d="M88.8748 11.0041L84.1005 1.8418H77.0981L88.8748 24.5006L100.637 1.8418H93.6347L88.8748 11.0041Z" fill="#FC5200"/>
</svg>
