<svg width="95" height="20" viewBox="0 0 95 20" fill="none" xmlns="http://www.w3.org/2000/svg">
<path d="M9.10412 19.2124C7.38774 19.2247 5.6798 18.9708 4.04105 18.4595C2.55275 17.9998 1.17647 17.2345 0 16.2124L3.17175 12.436C4.07912 13.152 5.11054 13.6944 6.2143 14.036C7.24213 14.352 8.31087 14.5145 9.38605 14.5183C9.78799 14.5474 10.191 14.4787 10.5608 14.3183C10.665 14.268 10.7532 14.1897 10.8155 14.092C10.8777 13.9943 10.9116 13.8812 10.9132 13.7654C10.899 13.6203 10.8423 13.4827 10.7504 13.3697C10.6585 13.2567 10.5353 13.1733 10.3963 13.1301C9.77188 12.882 9.12176 12.7044 8.45802 12.6007C7.46342 12.3967 6.51189 12.1575 5.60343 11.883C4.77838 11.6425 3.98847 11.2944 3.25398 10.8477C2.59406 10.4473 2.03528 9.89973 1.62112 9.24772C1.19789 8.53768 0.985959 7.72135 1.01026 6.89478C1.00343 6.08402 1.17174 5.28137 1.50365 4.54184C1.83621 3.80591 2.33007 3.15448 2.94855 2.63596C3.64122 2.06267 4.43944 1.631 5.298 1.36538C6.34422 1.04406 7.43432 0.889234 8.5285 0.906551C10.0583 0.88011 11.5832 1.08638 13.0512 1.51832C14.3284 1.90269 15.5233 2.52099 16.5754 3.34185L13.662 7.23596C12.8354 6.64402 11.9136 6.19836 10.9367 5.91831C10.0768 5.64932 9.18256 5.50666 8.28181 5.49478C7.9446 5.4701 7.60714 5.53932 7.30678 5.69478C7.21097 5.74596 7.13085 5.82225 7.07499 5.9155C7.01912 6.00875 6.98961 6.11545 6.98961 6.2242C7.00395 6.36133 7.0568 6.49159 7.14204 6.59987C7.22729 6.70814 7.34144 6.79001 7.47125 6.83596C8.07455 7.08656 8.70552 7.26428 9.35081 7.36537C10.3983 7.54547 11.434 7.78906 12.4521 8.09478C13.2837 8.34987 14.0748 8.72224 14.8015 9.20066C15.4358 9.61075 15.9665 10.1624 16.3522 10.8124C16.7314 11.5117 16.9179 12.2994 16.8925 13.0948C16.9059 13.9668 16.7127 14.8296 16.3287 15.6124C15.9934 16.3828 15.4824 17.0638 14.8368 17.6007C14.0973 18.1403 13.2651 18.5391 12.3816 18.7771C11.3155 19.0783 10.2118 19.2249 9.10412 19.2124Z" fill="#FC5200"/>
<path d="M21.8852 6.14071H16.6577V1.11719H33.0451V6.14071H27.7589V18.8584H21.8852V6.14071Z" fill="#FC5200"/>
<path d="M33.8203 1.1186H42.4898C43.8147 1.07888 45.137 1.26181 46.4016 1.65978C47.3366 1.95862 48.192 2.46538 48.9038 3.14213C49.414 3.66451 49.8136 4.28476 50.0785 4.96566C50.3607 5.71747 50.5002 6.51548 50.4897 7.3186C50.5269 8.4879 50.1983 9.63962 49.5499 10.6127C48.8966 11.5343 48.0137 12.2685 46.989 12.7421L51.1357 18.8598H44.3693L41.0214 13.7774H39.7527V18.8598H33.8203V1.1186ZM42.3136 9.57742C42.9046 9.60996 43.4901 9.4489 43.9817 9.1186C44.1793 8.97283 44.3383 8.78082 44.4448 8.55934C44.5513 8.33786 44.602 8.09364 44.5925 7.84801C44.6094 7.5997 44.5621 7.35122 44.4551 7.12658C44.3481 6.90195 44.185 6.70875 43.9817 6.56566C43.4888 6.26136 42.9154 6.1137 42.3371 6.14213H39.7527V9.67154H42.3136V9.57742Z" fill="#FC5200"/>
<path d="M85.4494 11.2353L89.3143 18.8823H95L85.4494 0L75.8989 18.8823H81.5846L85.4494 11.2353Z" fill="#FC5200"/>
<path d="M58.8654 11.2353L62.7303 18.8823H68.416L58.8654 0L49.3149 18.8823H55.0006L58.8654 11.2353Z" fill="#FC5200"/>
<path d="M72.1633 8.75248L68.2867 1.11719H62.6011L72.1633 19.9995L81.7138 1.11719H76.0282L72.1633 8.75248Z" fill="#FC5200"/>
</svg>
