<svg width="117" height="25" viewBox="0 0 117 25" fill="none" xmlns="http://www.w3.org/2000/svg">
<path d="M11.2124 23.0752C9.09858 23.09 6.99512 22.7852 4.97687 22.1717C3.14392 21.6201 1.44892 20.7017 0 19.4752L3.90627 14.9435C5.02376 15.8028 6.29404 16.4536 7.6534 16.8635C8.91925 17.2427 10.2355 17.4378 11.5597 17.4423C12.0547 17.4771 12.551 17.3948 13.0064 17.2023C13.1348 17.142 13.2434 17.0479 13.3201 16.9307C13.3968 16.8135 13.4384 16.6778 13.4405 16.5388C13.4229 16.3647 13.3532 16.1995 13.24 16.0639C13.1267 15.9283 12.9751 15.8283 12.8039 15.7764C12.0348 15.4787 11.2342 15.2656 10.4167 15.1411C9.19179 14.8964 8.0199 14.6093 6.90107 14.2799C5.88496 13.9913 4.91212 13.5736 4.00754 13.0376C3.19479 12.557 2.50661 11.9 1.99653 11.1176C1.47529 10.2655 1.21429 9.28594 1.24422 8.29405C1.23581 7.32114 1.44309 6.35795 1.85186 5.47052C2.26143 4.5874 2.86966 3.80569 3.63138 3.18347C4.48445 2.49552 5.46752 1.97751 6.52491 1.65876C7.81341 1.27319 9.15596 1.08739 10.5035 1.10817C12.3876 1.07644 14.2657 1.32397 16.0736 1.84229C17.6466 2.30354 19.1182 3.04551 20.4139 4.03053L16.8259 8.70346C15.8079 7.99314 14.6726 7.45834 13.4694 7.12229C12.4104 6.7995 11.309 6.62831 10.1997 6.61405C9.7844 6.58443 9.3688 6.66749 8.99888 6.85405C8.88088 6.91546 8.78221 7.00701 8.7134 7.11891C8.6446 7.23081 8.60826 7.35885 8.60826 7.48935C8.62591 7.65391 8.691 7.81022 8.79599 7.94015C8.90098 8.07009 9.04156 8.16832 9.20144 8.22346C9.94445 8.52418 10.7215 8.73745 11.5163 8.85876C12.8064 9.07488 14.0819 9.36718 15.3357 9.73405C16.3599 10.0402 17.3342 10.487 18.2293 11.0611C19.0104 11.5532 19.6641 12.2152 20.139 12.9952C20.606 13.8343 20.8357 14.7796 20.8045 15.734C20.821 16.7805 20.583 17.8159 20.11 18.7552C19.6971 19.6797 19.0678 20.4969 18.2727 21.1411C17.362 21.7887 16.337 22.2672 15.2489 22.5529C13.9359 22.9142 12.5766 23.0901 11.2124 23.0752Z" fill="#B0B0B0"/>
<path d="M26.9534 7.39151H20.5153V1.36328H40.6976V7.39151H34.1872V22.6527H26.9534V7.39151Z" fill="#B0B0B0"/>
<path d="M41.6525 1.36185H52.3296C53.9614 1.31419 55.5899 1.5337 57.1473 2.01126C58.2988 2.36988 59.3523 2.97799 60.2289 3.79009C60.8573 4.41694 61.3495 5.16125 61.6757 5.97832C62.0233 6.8805 62.195 7.83811 62.1821 8.80185C62.228 10.205 61.8233 11.5871 61.0247 12.7548C60.2201 13.8607 59.1327 14.7417 57.8707 15.3101L62.9778 22.6513H54.6444L50.5211 16.5524H48.9586V22.6513H41.6525V1.36185ZM52.1126 11.5124C52.8405 11.5515 53.5616 11.3582 54.167 10.9618C54.4104 10.7869 54.6062 10.5565 54.7374 10.2907C54.8685 10.025 54.931 9.7319 54.9193 9.43714C54.9401 9.13917 54.8818 8.84099 54.75 8.57143C54.6182 8.30187 54.4174 8.07003 54.167 7.89832C53.5599 7.53316 52.8538 7.35597 52.1415 7.39008H48.9586V11.6254H52.1126V11.5124Z" fill="#B0B0B0"/>
<path d="M105.238 13.5038L109.998 22.6803H117L105.238 0.0214844L93.4756 22.6803H100.478L105.238 13.5038Z" fill="#B0B0B0"/>
<path d="M72.4974 13.5038L77.2573 22.6803H84.2596L72.4974 0.0214844L60.7352 22.6803H67.7376L72.4974 13.5038Z" fill="#B0B0B0"/>
<path d="M88.8749 10.5256L84.1006 1.36328H77.0983L88.8749 24.0221L100.637 1.36328H93.6348L88.8749 10.5256Z" fill="#B0B0B0"/>
</svg>
