<svg width="16" height="16" viewBox="0 0 16 16" fill="none" xmlns="http://www.w3.org/2000/svg">
<path fill-rule="evenodd" clip-rule="evenodd" d="M7.28008 12.04C7.66766 12.1315 8.07493 12.0868 8.43341 11.9133L15.4934 8.632V7.49867L9.50675 4.5L4.78675 6.56667L3.28675 5.84667L3.28541 5.84933C2.97381 5.71264 2.62965 5.66777 2.29341 5.72C1.79851 5.80082 1.35008 6.05939 1.0322 6.44723C0.714325 6.83506 0.54883 7.32553 0.566746 7.82667C0.578269 8.12299 0.666212 8.41131 0.822039 8.66362C0.977865 8.91594 1.19628 9.12367 1.45608 9.26667V9.26733L1.47341 9.276L1.50675 9.29333V9.292L6.99075 11.9407L6.99208 11.9387C7.07941 11.9787 7.17008 12.0113 7.26341 12.0353L7.28008 12.04ZM7.48008 11.164C7.27608 11.1033 7.10408 10.95 6.97341 10.7827C6.84352 10.6153 6.76896 10.4117 6.76008 10.2L8.00675 10.8267L8.21341 10.7067C8.51164 10.5479 8.7472 10.2926 8.88161 9.98263C9.01601 9.67264 9.04133 9.32623 8.95341 9C8.89209 8.80688 8.78757 8.63026 8.6478 8.48356C8.50803 8.33686 8.33668 8.22393 8.14675 8.15333L5.86275 7.084L9.48675 5.5L14.5734 8.07333L8.02675 11.12C7.85555 11.1992 7.66174 11.2148 7.48008 11.164ZM7.93341 9.07733L7.89741 9.06H7.64008C7.41601 9.09326 7.21073 9.20416 7.06008 9.37333L7.95341 9.82C8.02439 9.75731 8.07638 9.67599 8.10348 9.58526C8.13058 9.49452 8.13171 9.39801 8.10675 9.30667C8.07538 9.21344 8.01454 9.13295 7.93341 9.07733ZM3.00275 6.70867L6.70875 8.48867C6.46296 8.65185 6.2592 8.87077 6.11404 9.12761C5.96888 9.38444 5.88643 9.67193 5.87341 9.96667V10.2067C5.87341 10.2733 5.87741 10.3407 5.88475 10.4073L1.91208 8.48867L1.91341 8.48667C1.78243 8.41976 1.67185 8.31886 1.59326 8.19453C1.51468 8.0702 1.47098 7.92702 1.46675 7.78C1.45963 7.50257 1.55278 7.23188 1.72911 7.01759C1.90545 6.80329 2.15314 6.65976 2.42675 6.61333C2.62341 6.57733 2.82675 6.61333 3.00008 6.71333L3.00275 6.70867Z" fill="black"/>
</svg>
