<svg width="16" height="16" viewBox="0 0 16 16" fill="none" xmlns="http://www.w3.org/2000/svg">
<path fill-rule="evenodd" clip-rule="evenodd" d="M7.28 12.04C7.66758 12.1315 8.07486 12.0868 8.43334 11.9133L15.4933 8.632V7.49867L9.50667 4.5L4.78667 6.56667L3.28667 5.84667L3.28534 5.84933C2.97373 5.71264 2.62957 5.66777 2.29334 5.72C1.79843 5.80082 1.35 6.05939 1.03213 6.44723C0.714249 6.83506 0.548754 7.32553 0.56667 7.82667C0.578193 8.12299 0.666136 8.41131 0.821962 8.66362C0.977789 8.91594 1.1962 9.12367 1.456 9.26667V9.26733L1.47334 9.276L1.50667 9.29333V9.292L6.99067 11.9407L6.992 11.9387C7.07934 11.9787 7.17 12.0113 7.26334 12.0353L7.28 12.04ZM7.48 11.164C7.276 11.1033 7.104 10.95 6.97334 10.7827C6.84344 10.6153 6.76888 10.4117 6.76 10.2L8.00667 10.8267L8.21334 10.7067C8.51156 10.5479 8.74712 10.2926 8.88153 9.98263C9.01594 9.67264 9.04125 9.32623 8.95334 9C8.89201 8.80688 8.78749 8.63026 8.64772 8.48356C8.50795 8.33686 8.3366 8.22393 8.14667 8.15333L5.86267 7.084L9.48667 5.5L14.5733 8.07333L8.02667 11.12C7.85547 11.1992 7.66166 11.2148 7.48 11.164ZM7.93334 9.07733L7.89734 9.06H7.64C7.41593 9.09326 7.21065 9.20416 7.06 9.37333L7.95334 9.82C8.02431 9.75731 8.0763 9.67599 8.1034 9.58526C8.1305 9.49452 8.13164 9.39801 8.10667 9.30667C8.0753 9.21344 8.01446 9.13295 7.93334 9.07733ZM3.00267 6.70867L6.70867 8.48867C6.46289 8.65185 6.25912 8.87077 6.11396 9.12761C5.9688 9.38444 5.88636 9.67193 5.87334 9.96667V10.2067C5.87334 10.2733 5.87734 10.3407 5.88467 10.4073L1.912 8.48867L1.91334 8.48667C1.78235 8.41976 1.67177 8.31886 1.59318 8.19453C1.5146 8.0702 1.4709 7.92702 1.46667 7.78C1.45955 7.50257 1.5527 7.23188 1.72904 7.01759C1.90537 6.80329 2.15306 6.65976 2.42667 6.61333C2.62334 6.57733 2.82667 6.61333 3 6.71333L3.00267 6.70867Z" fill="black"/>
</svg>
