<svg width="33" height="33" viewBox="0 0 33 33" fill="none" xmlns="http://www.w3.org/2000/svg">
<path d="M16.5 1.02148C13.5333 1.02148 10.6332 1.90122 8.16645 3.54944C5.69971 5.19766 3.77712 7.54034 2.64181 10.2812C1.50649 13.0221 1.20944 16.0381 1.78822 18.9478C2.367 21.8576 3.79561 24.5303 5.8934 26.6281C7.99119 28.7259 10.6639 30.1545 13.5736 30.7333C16.4834 31.312 19.4994 31.015 22.2403 29.8797C24.9811 28.7444 27.3238 26.8218 28.972 24.355C30.6203 21.8883 31.5 18.9882 31.5 16.0215C31.4958 12.0445 29.9141 8.23169 27.1019 5.41956C24.2898 2.60743 20.4769 1.02572 16.5 1.02148ZM16.5 29.0215C13.9288 29.0215 11.4154 28.259 9.27759 26.8306C7.13975 25.4021 5.47351 23.3718 4.48957 20.9964C3.50563 18.6209 3.24818 16.0071 3.74979 13.4853C4.2514 10.9636 5.48953 8.64718 7.30761 6.8291C9.12569 5.01101 11.4421 3.77288 13.9638 3.27128C16.4856 2.76967 19.0994 3.02711 21.4749 4.01105C23.8503 4.99499 25.8806 6.66123 27.3091 8.79907C28.7376 10.9369 29.5 13.4503 29.5 16.0215C29.4958 19.468 28.1248 22.7721 25.6877 25.2092C23.2507 27.6463 19.9465 29.0173 16.5 29.0215Z" fill="black"/>
<path d="M17.5 6.02148H15.5V17.0215H22.5V15.0215H17.5V6.02148Z" fill="black"/>
</svg>