<svg width="24" height="24" viewBox="0 0 24 24" fill="none" xmlns="http://www.w3.org/2000/svg">
<path fill-rule="evenodd" clip-rule="evenodd" d="M10.9201 18.06C11.5015 18.1973 12.1124 18.1302 12.6501 17.87L23.2401 12.948V11.248L14.2601 6.75L7.18012 9.85L4.93012 8.77L4.92812 8.774C4.46071 8.56896 3.94447 8.50165 3.44012 8.58C2.69776 8.70123 2.02512 9.08909 1.5483 9.67084C1.07149 10.2526 0.823245 10.9883 0.850119 11.74C0.867404 12.1845 0.999319 12.617 1.23306 12.9954C1.4668 13.3739 1.79442 13.6855 2.18412 13.9V13.901L2.21012 13.914L2.26012 13.94V13.938L10.4861 17.911L10.4881 17.908C10.6191 17.968 10.7551 18.017 10.8951 18.053L10.9201 18.06ZM11.2201 16.746C10.9141 16.655 10.6561 16.425 10.4601 16.174C10.2653 15.923 10.1534 15.6175 10.1401 15.3L12.0101 16.24L12.3201 16.06C12.7675 15.8218 13.1208 15.4389 13.3224 14.9739C13.524 14.509 13.562 13.9894 13.4301 13.5C13.3381 13.2103 13.1814 12.9454 12.9717 12.7253C12.762 12.5053 12.505 12.3359 12.2201 12.23L8.79412 10.626L14.2301 8.25L21.8601 12.11L12.0401 16.68C11.7833 16.7988 11.4926 16.8222 11.2201 16.746ZM11.9001 13.616L11.8461 13.59H11.4601C11.124 13.6399 10.8161 13.8062 10.5901 14.06L11.9301 14.73C12.0366 14.636 12.1146 14.514 12.1552 14.3779C12.1959 14.2418 12.1976 14.097 12.1601 13.96C12.1131 13.8202 12.0218 13.6994 11.9001 13.616ZM4.50412 10.063L10.0631 12.733C9.69445 12.9778 9.3888 13.3062 9.17106 13.6914C8.95332 14.0767 8.82965 14.5079 8.81012 14.95V15.31C8.81012 15.41 8.81612 15.511 8.82712 15.611L2.86812 12.733L2.87012 12.73C2.67364 12.6296 2.50777 12.4783 2.38989 12.2918C2.27201 12.1053 2.20647 11.8905 2.20012 11.67C2.18944 11.2539 2.32917 10.8478 2.59367 10.5264C2.85817 10.2049 3.22971 9.98964 3.64012 9.92C3.93512 9.866 4.24012 9.92 4.50012 10.07L4.50412 10.063Z" fill="black"/>
</svg>