<svg width="24" height="24" viewBox="0 0 24 24" fill="none" xmlns="http://www.w3.org/2000/svg">
<path d="M5.50017 19.6753C6.74958 19.6715 7.95526 19.2149 8.89388 18.3903C9.83251 17.5657 10.4405 16.4288 10.6052 15.1903H11.7102L14.9902 8.67031L15.7502 10.1303C14.6738 10.8217 13.9003 11.8963 13.5864 13.1366C13.2724 14.3768 13.4415 15.69 14.0594 16.8102C14.6772 17.9305 15.6977 18.7741 16.9141 19.1703C18.1306 19.5665 19.4522 19.4856 20.6112 18.9441C21.7703 18.4025 22.6803 17.4408 23.157 16.2536C23.6336 15.0663 23.6414 13.7423 23.1786 12.5496C22.7158 11.3569 21.8171 10.3846 20.6644 9.82962C19.5117 9.27461 18.1912 9.17834 16.9702 9.56031L14.9402 5.67031H17.0002C17.0875 5.6711 17.1709 5.70611 17.2327 5.76783C17.2944 5.82955 17.3294 5.91303 17.3302 6.00031V6.57031H18.6702V6.00031C18.671 5.78031 18.6284 5.56231 18.5449 5.35878C18.4613 5.15525 18.3385 4.97018 18.1834 4.81415C18.0283 4.65812 17.844 4.53419 17.6409 4.44946C17.4379 4.36472 17.2202 4.32084 17.0002 4.32031H12.7102L14.2802 7.33031H8.54217L7.66017 5.67031H9.11017L8.39017 4.32031H4.17017L4.89017 5.67031H6.13117L7.39117 8.04031V8.05031L6.63117 9.46031C6.26058 9.37411 5.88164 9.32884 5.50117 9.32531C4.82158 9.32531 4.14864 9.45917 3.52079 9.71924C2.89293 9.9793 2.32244 10.3605 1.84189 10.841C1.36135 11.3216 0.980163 11.8921 0.720095 12.5199C0.460027 13.1478 0.326172 13.8207 0.326172 14.5003C0.326172 15.1799 0.460027 15.8528 0.720095 16.4807C0.980163 17.1086 1.36135 17.679 1.84189 18.1596C2.32244 18.6401 2.89293 19.0213 3.52079 19.2814C4.14864 19.5415 4.82058 19.6753 5.50017 19.6753ZM18.2902 14.9803H19.8102L17.6102 10.7803C17.9012 10.7073 18.2002 10.6703 18.5002 10.6703C19.2577 10.6703 19.9982 10.8949 20.628 11.3158C21.2578 11.7366 21.7487 12.3348 22.0386 13.0346C22.3285 13.7345 22.4044 14.5046 22.2566 15.2475C22.1088 15.9905 21.744 16.6729 21.2084 17.2085C20.6728 17.7442 19.9903 18.1089 19.2474 18.2567C18.5044 18.4045 17.7343 18.3287 17.0345 18.0388C16.3347 17.7489 15.7365 17.258 15.3156 16.6281C14.8948 15.9983 14.6702 15.2578 14.6702 14.5003C14.6731 13.8705 14.8294 13.2509 15.1257 12.6951C15.4219 12.1392 15.849 11.664 16.3702 11.3103L18.2902 14.9803ZM13.4702 8.67031L11.4242 12.7523L9.25417 8.67031H13.4702ZM8.15017 9.47031L10.4732 13.8413H5.80017L8.15017 9.47031ZM5.50017 10.6753C5.65117 10.6803 5.80217 10.6943 5.95117 10.7163L4.37117 13.6603L5.16117 15.1903H9.26117C9.1295 15.9045 8.79708 16.5664 8.30284 17.0985C7.8086 17.6305 7.173 18.0108 6.47046 18.1947C5.76792 18.3786 5.02752 18.3586 4.33597 18.1369C3.64441 17.9153 3.03031 17.5012 2.56558 16.9431C2.10085 16.3851 1.80473 15.7062 1.71189 14.9859C1.61904 14.2657 1.73332 13.5339 2.04134 12.8762C2.34936 12.2186 2.83837 11.6623 3.45111 11.2725C4.06385 10.8827 4.77396 10.6756 5.50017 10.6753Z" fill="black"/>
</svg>
