<svg width="16" height="16" viewBox="0 0 16 16" fill="none" xmlns="http://www.w3.org/2000/svg">
<path fill-rule="evenodd" clip-rule="evenodd" d="M3.40673 8.81288C3.40673 6.45288 5.32673 4.53288 7.68673 4.53288C10.0467 4.53288 11.9667 6.45288 11.9667 8.81288C11.9667 11.1729 10.0467 13.0929 7.68673 13.0929C5.32673 13.0929 3.40673 11.1729 3.40673 8.81288ZM4.30673 8.81288C4.30673 10.6795 5.82673 12.1929 7.68673 12.1929V12.1995C9.5534 12.1995 11.0667 10.6795 11.0667 8.81954C11.0667 8.09288 10.8334 7.42621 10.4401 6.87288L8.68673 9.46621C8.4734 9.80621 8.10007 10.0129 7.68673 10.0129C7.4017 10.012 7.12639 9.90913 6.91057 9.72293C6.69475 9.53673 6.55266 9.27948 6.50999 8.99765C6.46731 8.71583 6.52686 8.42803 6.67788 8.18629C6.8289 7.94454 7.06141 7.7648 7.3334 7.67954L10.3201 6.71954C9.70007 5.93954 8.7534 5.43288 7.68673 5.43288C5.82007 5.43288 4.30673 6.94621 4.30673 8.81288ZM7.9334 8.97288L8.40007 8.27954V8.27288L7.60007 8.53288C7.4734 8.57288 7.38673 8.68621 7.38673 8.81288C7.38673 9.07954 7.78673 9.19954 7.9334 8.97288Z" fill="black"/>
<path fill-rule="evenodd" clip-rule="evenodd" d="M13.6199 4.86622L12.6733 5.59956H12.6666C13.2666 6.52622 13.6199 7.62622 13.6199 8.81289C13.6199 12.0862 10.9599 14.7462 7.68658 14.7462C4.41325 14.7462 1.75325 11.9329 1.75325 8.81289C1.75325 5.69289 4.17325 3.13289 7.23992 2.89956V2.11289H6.02658V1.21289H9.35325V2.11289H8.13992V2.89956C9.67638 3.01891 11.1061 3.73139 12.1266 4.88622L13.0666 4.15289L13.6199 4.86622ZM2.65325 8.81956C2.65325 11.5929 4.90658 13.8529 7.68658 13.8529C10.4599 13.8529 12.7199 11.5929 12.7199 8.81956C12.7199 6.04622 10.4599 3.78622 7.68658 3.78622C4.91325 3.78622 2.65325 6.04622 2.65325 8.81956Z" fill="black"/>
</svg>
