<svg width="16" height="17" viewBox="0 0 16 17" fill="none" xmlns="http://www.w3.org/2000/svg">
<path fill-rule="evenodd" clip-rule="evenodd" d="M5.33148 0.774991C5.65505 0.403305 6.2577 0.442393 6.51869 0.878713C6.99469 1.67447 8.38998 3.99175 9.42917 5.56443C9.65026 5.30888 9.84643 5.07713 10.0219 4.86986L10.024 4.86733C10.2383 4.61421 10.4236 4.39529 10.5838 4.2167C10.9267 3.8346 11.2344 3.54244 11.6306 3.35986C12.0257 3.17777 12.4574 3.1283 12.9969 3.11395C13.3102 3.10561 13.6874 3.10925 14.1405 3.11363L14.1448 3.11367C14.4688 3.1168 14.8336 3.12032 15.2464 3.12032L15.8417 3.12032V4.12032L15.2464 4.12032C14.8156 4.12032 14.4441 4.11668 14.1203 4.11351C13.6727 4.10913 13.3199 4.10571 13.0235 4.11359C12.5139 4.12715 12.2521 4.17454 12.0491 4.26806C11.8473 4.36109 11.6523 4.5233 11.3281 4.88462C11.1693 5.06149 10.9979 5.26422 10.7896 5.51067C10.5621 5.77973 10.2927 6.09841 9.9548 6.48343C9.64558 6.83578 9.06898 6.82294 8.7924 6.41205C7.83405 4.98826 6.4818 2.75962 5.84914 1.70667C5.5096 2.10634 5.24981 2.43363 5.03285 2.70698L5.03222 2.70777C4.94591 2.81651 4.86573 2.91753 4.79022 3.01084C4.49465 3.3761 4.22983 3.67917 3.8726 3.86951C3.5077 4.06394 3.10291 4.11257 2.59582 4.12675C2.30263 4.13495 1.94304 4.13141 1.50446 4.12709L1.49968 4.12705C1.18 4.1239 0.816183 4.12032 0.399963 4.12032H0.149963V3.12032H0.399963C0.835054 3.12032 1.20581 3.12402 1.52507 3.12722C1.95803 3.13155 2.29236 3.13485 2.56785 3.12714C3.04753 3.11372 3.25359 3.06624 3.40237 2.98697C3.55872 2.90366 3.71034 2.75564 4.01285 2.3818C4.0833 2.29474 4.15985 2.19829 4.24515 2.09082C4.5112 1.75561 4.85599 1.32118 5.33148 0.774991ZM4.92466 2.04081C4.81944 2.17153 4.72414 2.29159 4.63678 2.40166C4.55209 2.50837 4.4736 2.60726 4.40153 2.69632C4.47546 2.60496 4.55431 2.50562 4.64122 2.39613C4.72755 2.28736 4.82154 2.16894 4.92466 2.04081ZM13.9589 3.61193C14.0116 3.61242 14.0654 3.61295 14.1206 3.61349L14.1249 3.61353C14.4488 3.6167 14.8182 3.62032 15.2464 3.62032C14.831 3.62032 14.4642 3.61678 14.1404 3.61365C14.0784 3.61305 14.0177 3.61247 13.9589 3.61193ZM0.649963 3.62073C0.976792 3.62177 1.26444 3.62464 1.52045 3.6272L1.5252 3.62724C1.57578 3.62775 1.62519 3.62824 1.67347 3.62871C1.61873 3.62819 1.56247 3.62764 1.50461 3.62707C1.25031 3.62457 0.966311 3.62177 0.649963 3.62073ZM10.3774 5.22375C10.1531 5.48869 9.8931 5.79543 9.59063 6.14036L9.58347 6.14852C9.90135 5.7862 10.1577 5.48363 10.3774 5.22375ZM5.33148 4.91819C5.65505 4.54651 6.2577 4.58559 6.51869 5.02191C6.99469 5.81767 8.38998 8.13495 9.42917 9.70763C9.65026 9.45208 9.84643 9.22033 10.0219 9.01306L10.0239 9.01066C10.2382 8.75748 10.4235 8.53852 10.5838 8.35991C10.9267 7.9778 11.2344 7.68564 11.6306 7.50306C12.0257 7.32097 12.4574 7.2715 12.9969 7.25715C13.3102 7.24881 13.6874 7.25245 14.1404 7.25683L14.1448 7.25687C14.4688 7.26 14.8336 7.26352 15.2464 7.26352H15.8417V8.26352H15.2464C14.8157 8.26352 14.4442 8.25988 14.1205 8.25671C13.6728 8.25233 13.3199 8.24891 13.0235 8.25679C12.5139 8.27035 12.2521 8.31774 12.0491 8.41126C11.8473 8.50429 11.6523 8.6665 11.3281 9.02782C11.1693 9.20469 10.9979 9.40742 10.7896 9.65388C10.5621 9.92295 10.2927 10.2416 9.9548 10.6266C9.64558 10.979 9.06898 10.9661 8.7924 10.5553C7.83405 9.13147 6.4818 6.90282 5.84914 5.84987C5.5096 6.24954 5.24981 6.57683 5.03285 6.85018L5.0322 6.85099C4.9459 6.95972 4.86572 7.06073 4.79022 7.15404C4.49465 7.5193 4.22983 7.82237 3.8726 8.01271C3.5077 8.20714 3.10291 8.25577 2.59582 8.26995C2.30263 8.27815 1.94304 8.27461 1.50446 8.27029L1.49968 8.27025C1.17999 8.2671 0.816181 8.26352 0.399963 8.26352H0.149963V7.26352H0.399963C0.8351 7.26352 1.20589 7.26723 1.52517 7.27042C1.95814 7.27475 2.29236 7.27805 2.56785 7.27034C3.04754 7.25692 3.25359 7.20944 3.40237 7.13017C3.55872 7.04686 3.71034 6.89884 4.01285 6.525C4.0833 6.43794 4.15985 6.34149 4.24515 6.23402C4.5112 5.89881 4.85598 5.4644 5.33148 4.91819ZM4.93171 6.17525C4.82369 6.30937 4.72609 6.43234 4.63679 6.54486C4.55205 6.65162 4.47363 6.75042 4.40153 6.83952C4.47546 6.74816 4.55431 6.64882 4.64121 6.53933C4.72951 6.42809 4.8258 6.30677 4.93171 6.17525ZM13.9585 7.75512C14.0112 7.75562 14.0652 7.75615 14.1205 7.75669L14.1249 7.75673C14.4488 7.7599 14.8182 7.76352 15.2464 7.76352C14.831 7.76352 14.4642 7.75998 14.1404 7.75685C14.0782 7.75625 14.0174 7.75566 13.9585 7.75512ZM0.649963 7.76393C0.976791 7.76497 1.26444 7.76784 1.52045 7.7704L1.52515 7.77044C1.57535 7.77094 1.62438 7.77143 1.6723 7.7719C1.61794 7.77139 1.56205 7.77084 1.5046 7.77027C1.25031 7.76777 0.966305 7.76497 0.649963 7.76393ZM10.3773 9.36705C10.1531 9.63197 9.89306 9.93867 9.59063 10.2836L9.58538 10.2895C9.90233 9.92824 10.158 9.62638 10.3773 9.36705ZM5.33148 9.06139C5.65505 8.68971 6.2577 8.72879 6.51869 9.16512C6.99469 9.96087 8.38998 12.2782 9.42917 13.8508C9.65026 13.5953 9.84643 13.3635 10.0219 13.1563L10.024 13.1537C10.2383 12.9006 10.4236 12.6817 10.5838 12.5031C10.9267 12.121 11.2344 11.8288 11.6306 11.6463C12.0257 11.4642 12.4574 11.4147 12.9969 11.4003C13.3102 11.392 13.6874 11.3957 14.1404 11.4L14.1448 11.4001C14.4688 11.4032 14.8336 11.4067 15.2464 11.4067L15.8417 11.4067L15.8417 12.4067L15.2464 12.4067C14.8157 12.4067 14.4443 12.4031 14.1206 12.3999C13.673 12.3955 13.3199 12.3921 13.0235 12.4C12.5139 12.4136 12.2521 12.4609 12.0491 12.5545C11.8473 12.6475 11.6523 12.8097 11.3281 13.171C11.1693 13.3479 10.9979 13.5506 10.7896 13.7971C10.5621 14.0662 10.2927 14.3848 9.9548 14.7698C9.64558 15.1222 9.06898 15.1093 8.7924 14.6985C7.83405 13.2747 6.4818 11.046 5.84913 9.99307C5.5096 10.3927 5.24981 10.72 5.03285 10.9934L5.03222 10.9942C4.94591 11.1029 4.86573 11.2039 4.79022 11.2972C4.49465 11.6625 4.22983 11.9656 3.8726 12.1559C3.5077 12.3503 3.10291 12.399 2.59582 12.4132C2.30262 12.4214 1.94302 12.4178 1.50441 12.4135L1.49968 12.4134C1.17999 12.4103 0.816179 12.4067 0.399963 12.4067H0.149963V11.4067H0.399963C0.835146 11.4067 1.20596 11.4104 1.52527 11.4136C1.95824 11.4179 2.29236 11.4212 2.56785 11.4135C3.04754 11.4001 3.25359 11.3526 3.40237 11.2734C3.55872 11.1901 3.71034 11.042 4.01285 10.6682C4.0833 10.5811 4.15985 10.4847 4.24514 10.3772C4.51119 10.042 4.856 9.60757 5.33148 9.06139ZM4.91685 10.3369C4.81471 10.4639 4.72197 10.5807 4.63678 10.6881L4.63614 10.6889C4.55148 10.7955 4.47358 10.8937 4.40153 10.9827C4.47546 10.8914 4.55432 10.792 4.64122 10.6825C4.72537 10.5765 4.8168 10.4613 4.91685 10.3369ZM14.14 11.9C14.0781 11.8995 14.0179 11.8989 13.9592 11.8983C14.0118 11.8988 14.0656 11.8994 14.1206 11.8999L14.1249 11.8999C14.4488 11.9031 14.8182 11.9067 15.2464 11.9067C14.8311 11.9067 14.4638 11.9032 14.14 11.9ZM0.649963 11.9071C0.97679 11.9082 1.26444 11.911 1.52044 11.9136L1.5251 11.9136C1.57797 11.9142 1.62954 11.9147 1.67989 11.9152C1.62313 11.9146 1.56473 11.9141 1.5046 11.9135C1.25031 11.911 0.966311 11.9082 0.649963 11.9071ZM10.3791 13.5081C10.1544 13.7735 9.89387 14.081 9.59063 14.4268L9.58542 14.4327C9.90321 14.0704 10.1594 13.7679 10.3791 13.5081Z" fill="black"/>
</svg>
